<?xml version="1.0" encoding="UTF-8" standalone="no"?>
<svg
   xmlns:dc="http://purl.org/dc/elements/1.1/"
   xmlns:cc="http://creativecommons.org/ns#"
   xmlns:rdf="http://www.w3.org/1999/02/22-rdf-syntax-ns#"
   xmlns:svg="http://www.w3.org/2000/svg"
   xmlns="http://www.w3.org/2000/svg"
   xmlns:sodipodi="http://sodipodi.sourceforge.net/DTD/sodipodi-0.dtd"
   xmlns:inkscape="http://www.inkscape.org/namespaces/inkscape"
   height="95"
   viewBox="0 0 71.250006 71.250006"
   width="95"
   version="1.1"
   id="svg24"
   sodipodi:docname="assinar-registro.svg"
   inkscape:version="0.92.3 (2405546, 2018-03-11)">
  <metadata
     id="metadata30">
    <rdf:RDF>
      <cc:Work
         rdf:about="">
        <dc:format>image/svg+xml</dc:format>
        <dc:type
           rdf:resource="http://purl.org/dc/dcmitype/StillImage" />
        <dc:title />
      </cc:Work>
    </rdf:RDF>
  </metadata>
  <defs
     id="defs28" />
  <sodipodi:namedview
     pagecolor="#ffffff"
     bordercolor="#666666"
     borderopacity="1"
     objecttolerance="10"
     gridtolerance="10"
     guidetolerance="10"
     inkscape:pageopacity="0"
     inkscape:pageshadow="2"
     inkscape:window-width="1920"
     inkscape:window-height="968"
     id="namedview26"
     showgrid="false"
     units="px"
     inkscape:zoom="7.1039306"
     inkscape:cx="43.888262"
     inkscape:cy="47.149042"
     inkscape:window-x="1920"
     inkscape:window-y="27"
     inkscape:window-maximized="1"
     inkscape:current-layer="svg24" />
  <g
     id="g851"
     transform="matrix(0.13916015,0,0,0.13916015,0,-0.14458008)"
     style="fill:#003d4f;fill-opacity:1">
    <path
       id="path2"
       d="M 357.25,95.617188 C 357.25,68.878906 335.49609,47.125 308.75781,47.125 c -26.74219,0 -48.49609,21.753906 -48.49609,48.492188 0,26.742192 21.7539,48.496092 48.49609,48.496092 26.73828,0 48.49219,-21.7539 48.49219,-48.496092 z m -81.99609,0 c 0,-18.472657 15.03125,-33.5 33.5039,-33.5 18.47266,0 33.5,15.027343 33.5,33.5 0,18.476562 -15.02734,33.503902 -33.5,33.503902 -18.47265,0 -33.5039,-15.03125 -33.5039,-33.503902 z m 0,0"
       inkscape:connector-curvature="0"
       style="fill:#003d4f;fill-opacity:1" />
    <path
       id="path4"
       d="m 226.15625,69.910156 c 4.14062,0 7.49609,-3.355468 7.49609,-7.496094 0,-4.140624 -3.35547,-7.496093 -7.49609,-7.496093 h -19.70703 c -4.14063,0 -7.4961,3.355469 -7.4961,7.496093 0,4.140626 3.35547,7.496094 7.4961,7.496094 z m 0,0"
       inkscape:connector-curvature="0"
       style="fill:#003d4f;fill-opacity:1" />
    <path
       id="path6"
       d="m 58.277344,69.910156 h 99.609376 c 4.14062,0 7.49609,-3.355468 7.49609,-7.496094 0,-4.140624 -3.35547,-7.496093 -7.49609,-7.496093 H 58.277344 c -4.140625,0 -7.496094,3.355469 -7.496094,7.496093 0,4.140626 3.355469,7.496094 7.496094,7.496094 z m 0,0"
       inkscape:connector-curvature="0"
       style="fill:#003d4f;fill-opacity:1" />
    <path
       id="path8"
       d="m 58.277344,136.31641 h 25.6875 c 4.140625,0 7.496094,-3.35547 7.496094,-7.4961 0,-4.14062 -3.355469,-7.49609 -7.496094,-7.49609 h -25.6875 c -4.140625,0 -7.496094,3.35547 -7.496094,7.49609 0,4.14063 3.355469,7.4961 7.496094,7.4961 z m 0,0"
       inkscape:connector-curvature="0"
       style="fill:#003d4f;fill-opacity:1" />
    <path
       id="path10"
       d="m 132.53125,121.32422 c -4.14063,0 -7.49609,3.35547 -7.49609,7.49609 0,4.14063 3.35546,7.4961 7.49609,7.4961 h 16.23828 c 4.14063,0 7.49609,-3.35547 7.49609,-7.4961 0,-4.14062 -3.35546,-7.49609 -7.49609,-7.49609 z m 0,0"
       inkscape:connector-curvature="0"
       style="fill:#003d4f;fill-opacity:1" />
    <path
       id="path12"
       d="M 58.277344,103.11328 H 226.15625 c 4.14062,0 7.49609,-3.355468 7.49609,-7.496092 0,-4.140626 -3.35547,-7.496094 -7.49609,-7.496094 H 58.277344 c -4.140625,0 -7.496094,3.355468 -7.496094,7.496094 0,4.140624 3.355469,7.496092 7.496094,7.496092 z m 0,0"
       inkscape:connector-curvature="0"
       style="fill:#003d4f;fill-opacity:1" />
    <path
       id="path14"
       d="M 77.929688,227.33203 H 330.10547 c 14.96875,0 27.14453,-12.17969 27.14453,-27.14844 0,-14.96875 -12.17578,-27.14453 -27.14453,-27.14453 H 77.929688 c -14.96875,0 -27.148438,12.17578 -27.148438,27.14453 0,14.96875 12.179688,27.14844 27.148438,27.14844 z m 0,-39.30078 H 330.10547 c 6.69922,0 12.15234,5.44922 12.15234,12.15234 0,6.70313 -5.45312,12.15625 -12.15234,12.15625 H 77.929688 c -6.703126,0 -12.15625,-5.45312 -12.15625,-12.15625 0,-6.70312 5.453124,-12.15234 12.15625,-12.15234 z m 0,0"
       inkscape:connector-curvature="0"
       style="fill:#003d4f;fill-opacity:1" />
    <path
       id="path16"
       d="M 77.929688,296.09375 H 330.10547 c 14.96875,0 27.14453,-12.17969 27.14453,-27.14844 0,-14.96875 -12.17578,-27.14453 -27.14453,-27.14453 H 77.929688 c -14.96875,0 -27.148438,12.17578 -27.148438,27.14453 0,14.96875 12.179688,27.14844 27.148438,27.14844 z m 0,-39.30078 H 330.10547 c 6.69922,0 12.15234,5.45312 12.15234,12.15234 0,6.70313 -5.45312,12.15625 -12.15234,12.15625 H 77.929688 c -6.703126,0 -12.15625,-5.45312 -12.15625,-12.15625 0,-6.69922 5.453124,-12.15234 12.15625,-12.15234 z m 0,0"
       inkscape:connector-curvature="0"
       style="fill:#003d4f;fill-opacity:1" />
    <path
       id="path18"
       d="M 77.929688,364.85547 H 330.10547 c 14.96875,0 27.14453,-12.17578 27.14453,-27.14453 0,-14.96875 -12.17578,-27.14844 -27.14453,-27.14844 H 77.929688 c -14.96875,0 -27.148438,12.17969 -27.148438,27.14844 0,14.96875 12.179688,27.14453 27.148438,27.14453 z m 0,-39.30078 H 330.10547 c 6.69922,0 12.15234,5.45312 12.15234,12.15625 0,6.69922 -5.45312,12.15234 -12.15234,12.15234 H 77.929688 c -6.703126,0 -12.15625,-5.45312 -12.15625,-12.15234 0,-6.70313 5.453124,-12.15625 12.15625,-12.15625 z m 0,0"
       inkscape:connector-curvature="0"
       style="fill:#003d4f;fill-opacity:1" />
    <path
       id="path20"
       d="M 77.929688,433.61719 H 254.82422 c 14.96875,0 27.14844,-12.17578 27.14844,-27.14453 0,-14.96875 -12.17969,-27.14844 -27.14844,-27.14844 H 77.929688 c -14.96875,0 -27.148438,12.17969 -27.148438,27.14844 0,14.96875 12.179688,27.14453 27.148438,27.14453 z m 0,-39.30078 H 254.82422 c 6.70312,0 12.15234,5.45312 12.15234,12.15625 0,6.70312 -5.44922,12.15234 -12.15234,12.15234 H 77.929688 c -6.703126,0 -12.15625,-5.44922 -12.15625,-12.15234 0,-6.70313 5.453124,-12.15625 12.15625,-12.15625 z m 0,0"
       inkscape:connector-curvature="0"
       style="fill:#003d4f;fill-opacity:1" />
    <path
       id="path22"
       d="m 488.53906,400.70312 h -28.32812 v -25.01953 c 0,-6.39453 -3.85938,-11.89843 -9.36328,-14.32812 l 10.98437,-50.35156 c 3.15234,-14.46875 -0.67187,-29.85547 -10.24219,-41.16016 -9.12109,-10.77344 -22.44531,-16.95313 -36.5625,-16.95313 -2.35937,0 -4.69531,0.1875 -6.99609,0.52344 V 24.902344 C 408.03125,11.171875 396.85937,0 383.12891,0 H 24.902344 C 11.171875,0 0,11.171875 0,24.902344 v 80.421876 c 0,4.14062 3.355469,7.49609 7.496094,7.49609 4.140625,0 7.496094,-3.35547 7.496094,-7.49609 V 24.902344 c 0,-5.464844 4.445312,-9.910156 9.910156,-9.910156 H 383.12891 c 5.46484,0 9.91015,4.445312 9.91015,9.910156 V 258.23828 c -5.5039,2.84375 -10.46875,6.75391 -14.57812,11.60547 -5.66407,6.69531 -9.38282,14.8125 -10.75,23.47266 -0.64844,4.08984 2.14453,7.92968 6.23047,8.57421 4.09765,0.64844 7.92968,-2.14453 8.57812,-6.23437 0.9375,-5.94922 3.49219,-11.52734 7.38672,-16.125 6.26562,-7.40234 15.42187,-11.64844 25.12109,-11.64844 9.69922,0 18.85547,4.2461 25.1211,11.64844 6.57422,7.76562 9.20312,18.33594 7.03515,28.27734 l -11.39062,52.21485 h -41.53125 l -6.9961,-32.07813 c -0.88281,-4.04297 -4.87109,-6.60547 -8.92187,-5.72656 -4.04688,0.88281 -6.60938,4.87891 -5.72656,8.92187 l 6.58984,30.21485 c -5.50781,2.42969 -9.36719,7.93359 -9.36719,14.32812 v 25.01953 h -28.32422 c -12.9375,0 -23.46484,10.52344 -23.46484,23.46094 v 19.10156 c 0,12.9375 10.52734,23.46094 23.46484,23.46094 h 0.39844 l 4.55078,20.19531 c 0.8125,3.60157 2.19922,6.9336 4.05469,9.91407 H 24.902344 c -5.464844,0 -9.910156,-4.44532 -9.910156,-9.91016 V 139.72266 c 0,-4.14063 -3.355469,-7.4961 -7.496094,-7.4961 C 3.355469,132.22656 0,135.58203 0,139.72266 v 347.20312 c 0,13.73047 11.171875,24.90625 24.902344,24.90625 l 427.660156,-0.0977 c 14.97656,0 27.73828,-10.20312 31.02734,-24.8125 l 4.55078,-20.19531 h 0.39844 c 12.9336,0 23.46094,-10.52344 23.46094,-23.46094 v -19.10156 c 0,-12.9375 -10.52734,-23.46094 -23.46094,-23.46094 z M 384.83203,375.68359 c 0,-0.36718 0.30078,-0.66797 0.66797,-0.66797 h 59.05469 c 0.36719,0 0.66406,0.30079 0.66406,0.66797 v 25.01953 H 384.83203 Z M 468.96484,483.625 c -1.74218,7.72656 -8.48437,13.11719 -16.40234,13.11719 h -75.07031 c -7.91797,0 -14.66016,-5.39063 -16.40235,-13.11719 l -3.80468,-16.89844 h 115.48437 z m 28.04297,-40.35938 c 0,4.66797 -3.80078,8.46875 -8.46875,8.46875 H 341.51562 c -4.66796,0 -8.46875,-3.80078 -8.46875,-8.46875 v -19.10156 c 0,-4.67187 3.80079,-8.46875 8.46875,-8.46875 h 147.02344 c 4.67188,0 8.46875,3.79688 8.46875,8.46875 z m 0,0"
       inkscape:connector-curvature="0"
       style="fill:#003d4f;fill-opacity:1" />
  </g>
</svg>
