<?xml version="1.0" encoding="UTF-8" standalone="no"?>
<svg
   xmlns:dc="http://purl.org/dc/elements/1.1/"
   xmlns:cc="http://creativecommons.org/ns#"
   xmlns:rdf="http://www.w3.org/1999/02/22-rdf-syntax-ns#"
   xmlns:svg="http://www.w3.org/2000/svg"
   xmlns="http://www.w3.org/2000/svg"
   xmlns:sodipodi="http://sodipodi.sourceforge.net/DTD/sodipodi-0.dtd"
   xmlns:inkscape="http://www.inkscape.org/namespaces/inkscape"
   id="Capa_1"
   enable-background="new 0 0 512 512"
   height="95"
   viewBox="0 0 95 95"
   width="95"
   version="1.1"
   sodipodi:docname="certidao.svg"
   inkscape:version="0.92.3 (2405546, 2018-03-11)">
  <metadata
     id="metadata39">
    <rdf:RDF>
      <cc:Work
         rdf:about="">
        <dc:format>image/svg+xml</dc:format>
        <dc:type
           rdf:resource="http://purl.org/dc/dcmitype/StillImage" />
        <dc:title />
      </cc:Work>
    </rdf:RDF>
  </metadata>
  <defs
     id="defs37" />
  <sodipodi:namedview
     pagecolor="#ffffff"
     bordercolor="#666666"
     borderopacity="1"
     objecttolerance="10"
     gridtolerance="10"
     guidetolerance="10"
     inkscape:pageopacity="0"
     inkscape:pageshadow="2"
     inkscape:window-width="1920"
     inkscape:window-height="995"
     id="namedview35"
     showgrid="false"
     inkscape:zoom="0.84585558"
     inkscape:cx="-395.30414"
     inkscape:cy="142.19202"
     inkscape:window-x="0"
     inkscape:window-y="0"
     inkscape:window-maximized="1"
     inkscape:current-layer="Capa_1" />
  <g
     id="g32"
     transform="matrix(0.18558528,0,0,0.18554687,1.740603,4.48e-6)"
     style="fill:#003d4f;fill-opacity:1">
    <path
       d="m 181.022,142.59 -8.659,3.138 c -13.364,4.846 -23.334,16.536 -26.021,30.517 l -2.938,15.396 c -1.466,7.626 0.53,15.436 5.479,21.425 4.951,5.995 12.251,9.433 20.025,9.433 h 75.057 c 7.714,0 14.977,-3.393 19.927,-9.309 4.946,-5.911 7.004,-13.65 5.646,-21.233 l -2.74,-15.315 c -2.539,-14.201 -12.542,-26.081 -26.108,-31.004 l -9.18,-3.327 v -13.53 c 0,-0.38 -0.037,-0.75 -0.092,-1.115 6.697,-6.818 10.533,-16.115 10.533,-25.627 V 81.88 c 0,-19.678 -16.01,-35.687 -35.689,-35.687 -19.679,0 -35.692,16.009 -35.692,35.687 v 20.787 c 0,9.778 4.032,18.705 10.515,25.188 -0.038,0.304 -0.063,0.611 -0.063,0.925 z m 71.008,36.692 2.74,15.317 c 0.574,3.201 -0.295,6.468 -2.384,8.964 -2.092,2.5 -5.162,3.935 -8.423,3.935 h -75.057 c -3.285,0 -6.369,-1.452 -8.461,-3.985 -2.088,-2.528 -2.931,-5.823 -2.311,-9.05 l 2.938,-15.396 c 1.693,-8.812 7.979,-16.183 16.4,-19.236 l 5.672,-2.055 c 0.142,0.146 0.285,0.293 0.439,0.428 6.463,5.651 14.57,8.477 22.682,8.476 8.102,0 16.207,-2.82 22.671,-8.46 0.233,-0.203 0.447,-0.422 0.651,-0.65 l 5.983,2.169 c 8.554,3.102 14.86,10.59 16.46,19.543 z M 185.57,81.88 c 0,-11.406 9.281,-20.687 20.689,-20.687 9.628,0 17.718,6.62 20.015,15.54 -0.964,0.471 -1.953,0.916 -2.966,1.321 -9.222,3.692 -16.671,3.202 -18.8,1.71 -3.392,-2.378 -8.068,-1.558 -10.447,1.834 -2.378,3.392 -1.557,8.068 1.834,10.447 3.663,2.569 8.635,3.853 14.309,3.853 5.155,0 10.89,-1.071 16.745,-3.19 v 9.329 c 0,5.733 -2.371,11.347 -6.506,15.402 -1.914,1.878 -4.107,3.333 -6.462,4.337 -0.165,0.063 -0.327,0.131 -0.486,0.205 -2.419,0.957 -5.003,1.438 -7.644,1.369 -11.184,-0.215 -20.281,-9.494 -20.281,-20.684 z m 19.993,56.469 c 0.229,0.004 0.456,0.006 0.685,0.006 3.519,0 6.967,-0.529 10.261,-1.544 v 11.999 c -6.251,3.854 -14.242,3.852 -20.485,-0.006 v -11.971 c 3.034,0.919 6.231,1.452 9.539,1.516 z"
       id="path2"
       inkscape:connector-curvature="0"
       style="fill:#003d4f;fill-opacity:1" />
    <path
       d="m 88.264,350.904 h 233.57 c 4.143,0 7.5,-3.357 7.5,-7.5 0,-4.143 -3.357,-7.5 -7.5,-7.5 H 88.264 c -4.143,0 -7.5,3.357 -7.5,7.5 0,4.143 3.357,7.5 7.5,7.5 z"
       id="path4"
       inkscape:connector-curvature="0"
       style="fill:#003d4f;fill-opacity:1" />
    <path
       d="m 88.264,391.345 h 233.57 c 4.143,0 7.5,-3.357 7.5,-7.5 0,-4.143 -3.357,-7.5 -7.5,-7.5 H 88.264 c -4.143,0 -7.5,3.357 -7.5,7.5 0,4.143 3.357,7.5 7.5,7.5 z"
       id="path6"
       inkscape:connector-curvature="0"
       style="fill:#003d4f;fill-opacity:1" />
    <path
       d="m 88.264,431.784 h 233.57 c 4.143,0 7.5,-3.357 7.5,-7.5 0,-4.143 -3.357,-7.5 -7.5,-7.5 H 88.264 c -4.143,0 -7.5,3.357 -7.5,7.5 0,4.143 3.357,7.5 7.5,7.5 z"
       id="path8"
       inkscape:connector-curvature="0"
       style="fill:#003d4f;fill-opacity:1" />
    <path
       d="m 88.264,472.225 h 233.57 c 4.143,0 7.5,-3.357 7.5,-7.5 0,-4.143 -3.357,-7.5 -7.5,-7.5 H 88.264 c -4.143,0 -7.5,3.357 -7.5,7.5 0,4.143 3.357,7.5 7.5,7.5 z"
       id="path10"
       inkscape:connector-curvature="0"
       style="fill:#003d4f;fill-opacity:1" />
    <path
       d="m 80.764,262.524 c 0,4.143 3.357,7.5 7.5,7.5 h 233.57 c 4.143,0 7.5,-3.357 7.5,-7.5 0,-4.143 -3.357,-7.5 -7.5,-7.5 H 88.264 c -4.143,0 -7.5,3.358 -7.5,7.5 z"
       id="path12"
       inkscape:connector-curvature="0"
       style="fill:#003d4f;fill-opacity:1" />
    <path
       d="m 88.264,310.464 h 233.57 c 4.143,0 7.5,-3.357 7.5,-7.5 0,-4.143 -3.357,-7.5 -7.5,-7.5 H 88.264 c -4.143,0 -7.5,3.357 -7.5,7.5 0,4.143 3.357,7.5 7.5,7.5 z"
       id="path14"
       inkscape:connector-curvature="0"
       style="fill:#003d4f;fill-opacity:1" />
    <path
       d="m 60.569,350.932 c 4.158,0 7.529,-3.37 7.529,-7.528 0,-4.157 -3.371,-7.528 -7.529,-7.528 -4.158,0 -7.528,3.37 -7.528,7.528 0,4.158 3.371,7.528 7.528,7.528 z"
       id="path16"
       inkscape:connector-curvature="0"
       style="fill:#003d4f;fill-opacity:1" />
    <path
       d="m 60.569,270.052 c 4.158,0 7.529,-3.37 7.529,-7.528 0,-4.158 -3.371,-7.528 -7.529,-7.528 -4.158,0 -7.528,3.37 -7.528,7.528 0,4.158 3.371,7.528 7.528,7.528 z"
       id="path18"
       inkscape:connector-curvature="0"
       style="fill:#003d4f;fill-opacity:1" />
    <path
       d="m 60.569,310.492 c 4.158,0 7.529,-3.37 7.529,-7.528 0,-4.158 -3.371,-7.528 -7.529,-7.528 -4.158,0 -7.528,3.37 -7.528,7.528 0,4.158 3.371,7.528 7.528,7.528 z"
       id="path20"
       inkscape:connector-curvature="0"
       style="fill:#003d4f;fill-opacity:1" />
    <path
       d="m 60.569,391.372 c 4.158,0 7.529,-3.37 7.529,-7.528 0,-4.158 -3.371,-7.528 -7.529,-7.528 -4.158,0 -7.528,3.37 -7.528,7.528 0,4.158 3.371,7.528 7.528,7.528 z"
       id="path22"
       inkscape:connector-curvature="0"
       style="fill:#003d4f;fill-opacity:1" />
    <path
       d="m 60.569,431.813 c 4.158,0 7.529,-3.37 7.529,-7.528 0,-4.158 -3.371,-7.528 -7.529,-7.528 -4.158,0 -7.528,3.37 -7.528,7.528 0,4.157 3.371,7.528 7.528,7.528 z"
       id="path24"
       inkscape:connector-curvature="0"
       style="fill:#003d4f;fill-opacity:1" />
    <path
       d="m 60.569,472.253 c 4.158,0 7.529,-3.37 7.529,-7.528 0,-4.157 -3.371,-7.528 -7.529,-7.528 -4.158,0 -7.528,3.37 -7.528,7.528 0,4.157 3.371,7.528 7.528,7.528 z"
       id="path26"
       inkscape:connector-curvature="0"
       style="fill:#003d4f;fill-opacity:1" />
    <path
       d="m 485.63,118.121 c -3.026,-3.83 -5.886,-7.449 -7.269,-10.783 -1.492,-3.599 -2.08,-8.354 -2.702,-13.39 -1.091,-8.822 -2.327,-18.821 -9.305,-25.798 -6.978,-6.977 -16.978,-8.213 -25.8,-9.304 -5.037,-0.622 -9.794,-1.21 -13.393,-2.702 -3.335,-1.383 -6.953,-4.241 -10.784,-7.268 -5.271,-4.165 -11.068,-8.738 -17.922,-10.813 V 35.794 C 398.456,16.058 382.397,0 362.658,0 H 50.214 C 30.475,0 14.416,16.058 14.416,35.795 v 28.949 c 0,4.143 3.357,7.5 7.5,7.5 4.143,0 7.5,-3.357 7.5,-7.5 V 35.795 C 29.416,24.328 38.746,15 50.214,15 h 312.444 c 11.468,0 20.798,9.328 20.798,20.795 v 2.27 c -6.852,2.076 -12.647,6.647 -17.918,10.812 -3.831,3.026 -7.449,5.885 -10.783,7.268 -3.599,1.491 -8.356,2.079 -13.393,2.702 -8.822,1.09 -18.821,2.326 -25.8,9.303 -6.979,6.978 -8.215,16.977 -9.306,25.799 -0.622,5.035 -1.21,9.791 -2.702,13.39 -1.383,3.334 -4.242,6.953 -7.269,10.783 -5.604,7.091 -11.954,15.128 -11.954,25.417 0,10.289 6.351,18.326 11.954,25.417 3.026,3.83 5.886,7.449 7.269,10.783 1.492,3.599 2.08,8.354 2.702,13.391 1.091,8.821 2.327,18.82 9.305,25.797 6.978,6.978 16.978,8.213 25.8,9.304 2.63,0.325 5.179,0.644 7.532,1.084 v 113.367 c 0,4.443 2.48,8.411 6.473,10.355 3.992,1.947 8.645,1.453 12.146,-1.288 l 15.943,-12.483 v 136.94 c 0,11.467 -9.33,20.795 -20.798,20.795 H 50.214 c -11.468,0 -20.798,-9.328 -20.798,-20.795 V 97.771 c 0,-4.143 -3.357,-7.5 -7.5,-7.5 -4.143,0 -7.5,3.357 -7.5,7.5 v 378.434 c 0,19.737 16.059,35.795 35.798,35.795 h 312.444 c 19.739,0 35.798,-16.058 35.798,-35.795 v -136.94 l 15.943,12.482 c 2.081,1.63 4.571,2.466 7.089,2.466 1.716,0 3.444,-0.389 5.064,-1.178 3.994,-1.944 6.476,-5.912 6.476,-10.354 v -83.697 c 0,-4.143 -3.357,-7.5 -7.5,-7.5 -4.143,0 -7.5,3.357 -7.5,7.5 v 76.555 L 398.091,319.93 c -2.015,-1.595 -4.549,-2.474 -7.136,-2.474 -2.587,0 -5.121,0.879 -7.104,2.448 l -19.959,15.627 v -98.625 c 0.544,0.426 1.091,0.857 1.645,1.294 7.092,5.604 15.13,11.953 25.42,11.953 10.289,0 18.327,-6.35 25.419,-11.952 3.831,-3.026 7.45,-5.886 10.784,-7.269 3.599,-1.491 8.356,-2.079 13.393,-2.702 8.822,-1.09 18.821,-2.326 25.801,-9.303 6.977,-6.978 8.213,-16.977 9.304,-25.798 0.623,-5.036 1.211,-9.792 2.703,-13.391 1.383,-3.334 4.242,-6.953 7.269,-10.783 5.604,-7.091 11.954,-15.128 11.954,-25.417 0,-10.289 -6.351,-18.326 -11.954,-25.417 z m -11.769,41.534 c -3.528,4.465 -7.176,9.081 -9.355,14.337 -2.273,5.48 -3.016,11.487 -3.734,17.296 -0.871,7.046 -1.693,13.701 -5.023,17.031 -3.331,3.33 -9.987,4.152 -17.034,5.023 -5.81,0.718 -11.816,1.46 -17.298,3.733 -5.256,2.179 -9.872,5.826 -14.337,9.354 -5.679,4.485 -11.042,8.723 -16.121,8.723 -5.079,0 -10.442,-4.237 -16.121,-8.723 -4.465,-3.527 -9.081,-7.175 -14.337,-9.354 -0.362,-0.15 -1.618,-0.628 -1.889,-0.712 -4.957,-1.724 -10.26,-2.385 -15.41,-3.021 -7.047,-0.871 -13.703,-1.694 -17.034,-5.024 -3.329,-3.329 -4.152,-9.984 -5.023,-17.029 -0.718,-5.81 -1.46,-11.815 -3.733,-17.297 -2.18,-5.256 -5.827,-9.872 -9.355,-14.337 -4.485,-5.678 -8.723,-11.04 -8.723,-16.117 0,-5.077 4.237,-10.439 8.723,-16.117 3.528,-4.465 7.176,-9.081 9.355,-14.337 2.273,-5.48 3.016,-11.487 3.733,-17.296 0.871,-7.046 1.694,-13.701 5.024,-17.031 3.331,-3.33 9.987,-4.152 17.034,-5.023 5.81,-0.718 11.816,-1.46 17.298,-3.733 5.256,-2.179 9.872,-5.826 14.337,-9.354 5.667,-4.477 11.021,-8.705 16.091,-8.721 0.009,0 0.019,10e-4 0.028,10e-4 0.01,0 0.02,-10e-4 0.03,-10e-4 5.071,0.015 10.425,4.244 16.093,8.721 4.465,3.527 9.081,7.175 14.337,9.354 5.481,2.273 11.489,3.016 17.299,3.733 7.047,0.871 13.703,1.694 17.033,5.024 3.33,3.33 4.153,9.984 5.024,17.03 0.718,5.809 1.46,11.815 3.733,17.296 2.18,5.256 5.827,9.872 9.355,14.337 4.485,5.678 8.723,11.04 8.723,16.117 0,5.077 -4.237,10.44 -8.723,16.117 z"
       id="path28"
       inkscape:connector-curvature="0"
       style="fill:#003d4f;fill-opacity:1" />
    <path
       d="m 439.109,119.704 -25.522,-7.221 -14.757,-22.04 c -1.763,-2.632 -4.705,-4.202 -7.872,-4.202 -3.167,0 -6.11,1.571 -7.872,4.202 l -14.757,22.04 -25.524,7.222 c -3.048,0.863 -5.452,3.178 -6.43,6.19 -0.978,3.012 -0.392,6.297 1.566,8.783 l 16.403,20.843 -1.018,26.497 c -0.123,3.166 1.333,6.168 3.896,8.031 1.645,1.195 3.594,1.813 5.565,1.813 1.102,0 2.21,-0.193 3.274,-0.585 l 24.895,-9.158 24.893,9.157 c 2.973,1.096 6.276,0.636 8.839,-1.225 2.563,-1.861 4.021,-4.862 3.899,-8.029 l -1.018,-26.502 16.404,-20.843 c 1.958,-2.489 2.543,-5.772 1.564,-8.784 -0.975,-3.012 -3.379,-5.326 -6.428,-6.189 z m -24.587,28.143 c -1.386,1.764 -2.103,3.97 -2.018,6.219 l 0.778,20.284 -19.053,-7.009 c -2.111,-0.777 -4.436,-0.776 -6.543,-0.001 l -19.055,7.01 0.779,-20.291 c 0.084,-2.241 -0.634,-4.447 -2.023,-6.217 l -12.554,-15.952 19.539,-5.527 c 2.161,-0.613 4.04,-1.979 5.289,-3.845 l 11.295,-16.87 11.294,16.868 c 1.25,1.867 3.129,3.233 5.294,3.848 l 19.535,5.526 z"
       id="path30"
       inkscape:connector-curvature="0"
       style="fill:#003d4f;fill-opacity:1" />
  </g>
</svg>
