<?xml version="1.0" encoding="UTF-8" standalone="no"?>
<!-- Generator: Adobe Illustrator 19.0.0, SVG Export Plug-In . SVG Version: 6.00 Build 0)  -->

<svg
   xmlns:dc="http://purl.org/dc/elements/1.1/"
   xmlns:cc="http://creativecommons.org/ns#"
   xmlns:rdf="http://www.w3.org/1999/02/22-rdf-syntax-ns#"
   xmlns:svg="http://www.w3.org/2000/svg"
   xmlns="http://www.w3.org/2000/svg"
   xmlns:sodipodi="http://sodipodi.sourceforge.net/DTD/sodipodi-0.dtd"
   xmlns:inkscape="http://www.inkscape.org/namespaces/inkscape"
   version="1.1"
   id="Capa_1"
   x="0px"
   y="0px"
   viewBox="0 0 95 95"
   xml:space="preserve"
   sodipodi:docname="custas.svg"
   inkscape:version="0.92.3 (2405546, 2018-03-11)"
   width="95"
   height="95"><metadata
   id="metadata49"><rdf:RDF><cc:Work
       rdf:about=""><dc:format>image/svg+xml</dc:format><dc:type
         rdf:resource="http://purl.org/dc/dcmitype/StillImage" /><dc:title /></cc:Work></rdf:RDF></metadata><defs
   id="defs47" /><sodipodi:namedview
   pagecolor="#ffffff"
   bordercolor="#666666"
   borderopacity="1"
   objecttolerance="10"
   gridtolerance="10"
   guidetolerance="10"
   inkscape:pageopacity="0"
   inkscape:pageshadow="2"
   inkscape:window-width="1920"
   inkscape:window-height="995"
   id="namedview45"
   showgrid="false"
   inkscape:zoom="1.986082"
   inkscape:cx="-96.004251"
   inkscape:cy="20.573874"
   inkscape:window-x="0"
   inkscape:window-y="0"
   inkscape:window-maximized="1"
   inkscape:current-layer="Capa_1"
   showguides="false" />
<g
   id="g6"
   transform="scale(0.18554687)"
   style="fill:#003d4f;fill-opacity:1">
	<g
   id="g4"
   style="fill:#003d4f;fill-opacity:1">
		<path
   d="M 437.02,74.98 C 388.668,26.628 324.38,0 256,0 187.62,0 123.332,26.628 74.98,74.98 26.629,123.332 0,187.62 0,256 0,324.38 26.629,388.668 74.98,437.02 123.332,485.372 187.62,512 256,512 324.38,512 388.668,485.372 437.02,437.02 485.371,388.668 512,324.38 512,256 512,187.62 485.371,123.332 437.02,74.98 Z M 256,482 C 131.383,482 30,380.617 30,256 30,131.383 131.383,30 256,30 380.617,30 482,131.383 482,256 482,380.617 380.617,482 256,482 Z"
   id="path2"
   inkscape:connector-curvature="0"
   style="fill:#003d4f;fill-opacity:1" />
	</g>
</g>
<g
   id="g12"
   transform="scale(0.18554687)"
   style="fill:#003d4f;fill-opacity:1">
	<g
   id="g10"
   style="fill:#003d4f;fill-opacity:1">
		<path
   d="m 272.067,241 h -32.134 c -18.307,0 -33.2,-14.893 -33.2,-33.199 0,-18.307 14.894,-33.2 33.2,-33.2 H 304.2 c 8.284,0 15,-6.716 15,-15 0,-8.284 -6.716,-15 -15,-15 H 271 v -33.2 c 0,-8.284 -6.716,-15 -15,-15 -8.284,0 -15,6.716 -15,15 v 33.2 h -1.066 c -34.849,0 -63.2,28.352 -63.2,63.2 0,34.848 28.352,63.199 63.2,63.199 h 32.134 c 18.306,0 33.199,14.894 33.199,33.2 0,18.306 -14.893,33.2 -33.199,33.2 h -64.267 c -8.284,0 -15,6.716 -15,15 0,8.284 6.716,15 15,15 H 241 v 33.201 c 0,8.284 6.716,15 15,15 8.284,0 15,-6.716 15,-15 V 367.4 h 1.067 c 34.848,0 63.199,-28.352 63.199,-63.2 0,-34.848 -28.351,-63.2 -63.199,-63.2 z"
   id="path8"
   inkscape:connector-curvature="0"
   style="fill:#003d4f;fill-opacity:1" />
	</g>
</g>
<g
   id="g14"
   transform="translate(0,-417)">
</g>
<g
   id="g16"
   transform="translate(0,-417)">
</g>
<g
   id="g18"
   transform="translate(0,-417)">
</g>
<g
   id="g20"
   transform="translate(0,-417)">
</g>
<g
   id="g22"
   transform="translate(0,-417)">
</g>
<g
   id="g24"
   transform="translate(0,-417)">
</g>
<g
   id="g26"
   transform="translate(0,-417)">
</g>
<g
   id="g28"
   transform="translate(0,-417)">
</g>
<g
   id="g30"
   transform="translate(0,-417)">
</g>
<g
   id="g32"
   transform="translate(0,-417)">
</g>
<g
   id="g34"
   transform="translate(0,-417)">
</g>
<g
   id="g36"
   transform="translate(0,-417)">
</g>
<g
   id="g38"
   transform="translate(0,-417)">
</g>
<g
   id="g40"
   transform="translate(0,-417)">
</g>
<g
   id="g42"
   transform="translate(0,-417)">
</g>
<rect
   style="opacity:1;fill:#003d4f;fill-opacity:0;stroke:none;stroke-width:4.90204716;stroke-miterlimit:4;stroke-dasharray:none;stroke-opacity:1"
   id="rect914"
   width="82.574638"
   height="66.462509"
   x="-388.70499"
   y="-18.791876" /></svg>