<?xml version="1.0" encoding="UTF-8" standalone="no"?>
<svg
   xmlns:dc="http://purl.org/dc/elements/1.1/"
   xmlns:cc="http://creativecommons.org/ns#"
   xmlns:rdf="http://www.w3.org/1999/02/22-rdf-syntax-ns#"
   xmlns:svg="http://www.w3.org/2000/svg"
   xmlns="http://www.w3.org/2000/svg"
   xmlns:sodipodi="http://sodipodi.sourceforge.net/DTD/sodipodi-0.dtd"
   xmlns:inkscape="http://www.inkscape.org/namespaces/inkscape"
   height="116"
   viewBox="0 0 86.999997 86.999997"
   width="116"
   version="1.1"
   id="svg12"
   sodipodi:docname="atualizacao.svg"
   inkscape:version="0.92.3 (2405546, 2018-03-11)">
  <metadata
     id="metadata18">
    <rdf:RDF>
      <cc:Work
         rdf:about="">
        <dc:format>image/svg+xml</dc:format>
        <dc:type
           rdf:resource="http://purl.org/dc/dcmitype/StillImage" />
        <dc:title />
      </cc:Work>
    </rdf:RDF>
  </metadata>
  <defs
     id="defs16" />
  <sodipodi:namedview
     pagecolor="#ffffff"
     bordercolor="#666666"
     borderopacity="1"
     objecttolerance="10"
     gridtolerance="10"
     guidetolerance="10"
     inkscape:pageopacity="0"
     inkscape:pageshadow="2"
     inkscape:window-width="1920"
     inkscape:window-height="968"
     id="namedview14"
     showgrid="false"
     units="px"
     inkscape:zoom="1.1591895"
     inkscape:cx="588.52396"
     inkscape:cy="-57.26296"
     inkscape:window-x="1920"
     inkscape:window-y="27"
     inkscape:window-maximized="1"
     inkscape:current-layer="svg12" />
  <path
     d="m 83.482747,28.564098 c 0.356438,1.98796 -1.631515,3.46615 -3.008148,3.00749 -1.069976,-0.20377 -15.785476,-5.21713 -16.295241,-5.31869 -0.917313,-0.20377 -1.630852,-0.86687 -1.936844,-1.73307 -0.254883,-0.91798 0,-1.8864 0.66243,-2.54883 l 2.939781,-2.99089 c -5.862305,-5.35254 -13.832039,-8.78483 -22.344726,-8.78483 -18.250007,0 -33.304687,15.05468 -33.304687,33.30469 0,1.22331 0.102219,2.59994 0.254883,4.02702 0.102219,0.81575 -0.203774,1.5804 -0.8157577,2.14061 -0.5602111,0.56088 -1.4270783,0.81576 -2.1917267,0.6631 L 2.1917267,49.260058 C 1.0706405,49.056278 0.2548828,48.138968 0.15332798,47.017218 0.05110927,46.150348 0,45.029268 0,43.601528 c 0,-0.0505 0,-0.0505 0,-0.10156 C 0,19.592098 19.592124,-3.1598209e-5 43.499999,-3.1598209e-5 54.816397,-3.1598209e-5 65.386068,4.5540084 73.083662,11.741178 L 75.58138,9.2945684 c 0.66243,-0.66243 1.631516,-0.91732 2.497719,-0.66243 0.917977,0.25488 1.529297,0.96842 1.78418,1.8857296 0,0 3.51725,17.53581 3.619468,18.04623 z m 0,0"
     id="path2"
     inkscape:connector-curvature="0"
     style="fill:#003d4f;stroke-width:0.16992188;fill-opacity:0.59803921" />
  <path
     d="m 86.999997,43.346638 v 0.15333 c 0,23.90788 -19.592124,43.5 -43.499998,43.5 -11.367508,0 -21.937179,-4.55404 -29.634773,-11.74187 l -2.446609,2.44728 c -0.560875,0.61132 -1.4270783,0.91731 -2.4977188,0.66243 -0.9173127,-0.25489 -1.5804061,-1.01953 -1.7841797,-1.93685 -0.2037735,-1.07064 -3.51725,-17.48536 -3.6194685,-17.99512 -0.1526643,-0.81576 0.1022185,-1.73307 0.7135391,-2.29395 0.5608749,-0.61132 1.3766326,-0.8662 2.2434996,-0.71354 0,0 15.8365853,5.21647 16.3463513,5.31869 0.917313,0.20377 1.630852,0.86687 1.936844,1.73374 0.254883,0.91731 0,1.88573 -0.66243,2.54882 l -2.939781,2.93912 c 5.862304,5.40365 13.832038,8.83594 22.344726,8.83594 18.250007,0 33.304686,-15.05535 33.304686,-33.30469 0,-1.12175 -0.102218,-2.54883 -0.254883,-4.02701 -0.102218,-0.81576 0.203774,-1.63152 0.815758,-2.19239 0.560211,-0.56088 1.427078,-0.76465 2.191727,-0.61133 l 5.250984,1.07065 c 1.121086,0.20377 1.936844,1.12108 2.038398,2.24283 0.102219,1.12109 0.153328,2.24284 0.153328,3.36392 z m 0,0"
     id="path4"
     inkscape:connector-curvature="0"
     style="fill:#003d4f;stroke-width:0.16992188;fill-opacity:0.59803921" />
  <g
     id="g10"
     transform="matrix(0.16992187,0,0,0.16992187,0,-3.1598209e-5)"
     style="fill:#003d4f;fill-opacity:1">
    <path
       d="M 387.5,111.69922 C 353,80.199219 306.09766,60 256,60 V 0 c 66.59766,0 128.80078,26.800781 174.10156,69.097656 l 14.69922,-14.398437 c 3.89844,-3.898438 9.60156,-5.398438 14.69922,-3.898438 5.40234,1.5 9,5.699219 10.5,11.097657 0,0 20.69922,103.203122 21.30078,106.203122 2.10156,11.69922 -9.60156,20.39844 -17.69922,17.69922 -6.30078,-1.19922 -92.90234,-30.69922 -95.90234,-31.30078 -5.39844,-1.19922 -9.59766,-5.10156 -11.39844,-10.19922 -1.5,-5.40234 0,-11.10156 3.89844,-15 z m 0,0"
       id="path6"
       inkscape:connector-curvature="0"
       style="fill:#003d4f;fill-opacity:1" />
    <path
       d="M 512,255.09766 V 256 c 0,140.69922 -115.30078,256 -256,256 v -60 c 107.40234,0 196,-88.60156 196,-196 0,-6.60156 -0.60156,-15 -1.5,-23.69922 -0.60156,-4.80078 1.19922,-9.60156 4.80078,-12.90234 3.29688,-3.30078 8.39844,-4.5 12.89844,-3.59766 l 30.90234,6.30078 c 6.59766,1.19922 11.39844,6.59766 11.9961,13.19922 C 511.69922,241.89844 512,248.5 512,255.09766 Z m 0,0"
       id="path8"
       inkscape:connector-curvature="0"
       style="fill:#003d4f;fill-opacity:1" />
  </g>
</svg>
