<?xml version="1.0" encoding="UTF-8" standalone="no"?>
<!-- Generator: Adobe Illustrator 19.0.0, SVG Export Plug-In . SVG Version: 6.00 Build 0)  -->

<svg
   xmlns:dc="http://purl.org/dc/elements/1.1/"
   xmlns:cc="http://creativecommons.org/ns#"
   xmlns:rdf="http://www.w3.org/1999/02/22-rdf-syntax-ns#"
   xmlns:svg="http://www.w3.org/2000/svg"
   xmlns="http://www.w3.org/2000/svg"
   xmlns:sodipodi="http://sodipodi.sourceforge.net/DTD/sodipodi-0.dtd"
   xmlns:inkscape="http://www.inkscape.org/namespaces/inkscape"
   version="1.1"
   id="Layer_1"
   x="0px"
   y="0px"
   viewBox="0 0 114 114"
   xml:space="preserve"
   sodipodi:docname="pdf.svg"
   width="114"
   height="114"
   inkscape:version="0.92.3 (2405546, 2018-03-11)"><metadata
   id="metadata55"><rdf:RDF><cc:Work
       rdf:about=""><dc:format>image/svg+xml</dc:format><dc:type
         rdf:resource="http://purl.org/dc/dcmitype/StillImage" /><dc:title></dc:title></cc:Work></rdf:RDF></metadata><defs
   id="defs53" /><sodipodi:namedview
   pagecolor="#ffffff"
   bordercolor="#666666"
   borderopacity="1"
   objecttolerance="10"
   gridtolerance="10"
   guidetolerance="10"
   inkscape:pageopacity="0"
   inkscape:pageshadow="2"
   inkscape:window-width="1920"
   inkscape:window-height="968"
   id="namedview51"
   showgrid="false"
   inkscape:zoom="1.3954163"
   inkscape:cx="165.56013"
   inkscape:cy="70.280024"
   inkscape:window-x="1920"
   inkscape:window-y="27"
   inkscape:window-maximized="1"
   inkscape:current-layer="Layer_1" />
<path
   style="fill:#e2e5e7;stroke-width:0.22265603"
   d="M 21.374953,0 C 17.456212,0 14.249969,3.2062467 14.249969,7.1249956 V 106.875 c 0,3.91874 3.206243,7.125 7.124984,7.125 h 71.249841 c 3.918741,0 7.124987,-3.20626 7.124987,-7.125 V 28.499991 L 71.249843,0 Z"
   id="path2"
   inkscape:connector-curvature="0" />
<path
   style="fill:#b0b7bd;stroke-width:0.22265603"
   d="M 78.374829,28.499991 H 99.749781 L 71.249843,0 v 21.374996 c 0,3.918749 3.206246,7.124995 7.124986,7.124995 z"
   id="path4"
   inkscape:connector-curvature="0" />
<polygon
   style="fill:#cad1d8"
   points="384,128 480,128 480,224 "
   id="polygon6"
   transform="matrix(0.22265577,0,0,0.22265626,-7.1249843,0)" />
<path
   style="fill:#f15642;stroke-width:0.22265603"
   d="m 85.499816,92.625004 c 0,1.959366 -1.603127,3.562494 -3.562493,3.562494 H 3.5624926 C 1.6031216,96.187498 0,94.58437 0,92.625004 V 56.999991 C 0,55.040626 1.6031216,53.437498 3.5624926,53.437498 H 81.937323 c 1.959366,0 3.562493,1.603128 3.562493,3.562493 z"
   id="path8"
   inkscape:connector-curvature="0" />
<g
   id="g16"
   transform="matrix(0.22265577,0,0,0.22265626,-7.1249843,0)">
	<path
   style="fill:#ffffff"
   d="m 101.744,303.152 c 0,-4.224 3.328,-8.832 8.688,-8.832 h 29.552 c 16.64,0 31.616,11.136 31.616,32.48 0,20.224 -14.976,31.488 -31.616,31.488 h -21.36 v 16.896 c 0,5.632 -3.584,8.816 -8.192,8.816 -4.224,0 -8.688,-3.184 -8.688,-8.816 z m 16.88,7.28 v 31.872 h 21.36 c 8.576,0 15.36,-7.568 15.36,-15.504 0,-8.944 -6.784,-16.368 -15.36,-16.368 z"
   id="path10"
   inkscape:connector-curvature="0" />
	<path
   style="fill:#ffffff"
   d="m 196.656,384 c -4.224,0 -8.832,-2.304 -8.832,-7.92 v -72.672 c 0,-4.592 4.608,-7.936 8.832,-7.936 h 29.296 c 58.464,0 57.184,88.528 1.152,88.528 z m 8.064,-72.912 V 368.4 h 21.232 c 34.544,0 36.08,-57.312 0,-57.312 z"
   id="path12"
   inkscape:connector-curvature="0" />
	<path
   style="fill:#ffffff"
   d="m 303.872,312.112 v 20.336 h 32.624 c 4.608,0 9.216,4.608 9.216,9.072 0,4.224 -4.608,7.68 -9.216,7.68 h -32.624 v 26.864 c 0,4.48 -3.184,7.92 -7.664,7.92 -5.632,0 -9.072,-3.44 -9.072,-7.92 v -72.672 c 0,-4.592 3.456,-7.936 9.072,-7.936 h 44.912 c 5.632,0 8.96,3.344 8.96,7.936 0,4.096 -3.328,8.704 -8.96,8.704 h -37.248 z"
   id="path14"
   inkscape:connector-curvature="0" />
</g>
<path
   style="fill:#cad1d8;stroke-width:0.22265603"
   d="M 81.937323,96.187498 H 14.249969 V 99.75 h 67.687354 c 1.959366,0 3.562493,-1.603128 3.562493,-3.562502 v -3.562494 c 0,1.959366 -1.603127,3.562494 -3.562493,3.562494 z"
   id="path18"
   inkscape:connector-curvature="0" />
<g
   id="g20"
   transform="translate(0,-398)">
</g>
<g
   id="g22"
   transform="translate(0,-398)">
</g>
<g
   id="g24"
   transform="translate(0,-398)">
</g>
<g
   id="g26"
   transform="translate(0,-398)">
</g>
<g
   id="g28"
   transform="translate(0,-398)">
</g>
<g
   id="g30"
   transform="translate(0,-398)">
</g>
<g
   id="g32"
   transform="translate(0,-398)">
</g>
<g
   id="g34"
   transform="translate(0,-398)">
</g>
<g
   id="g36"
   transform="translate(0,-398)">
</g>
<g
   id="g38"
   transform="translate(0,-398)">
</g>
<g
   id="g40"
   transform="translate(0,-398)">
</g>
<g
   id="g42"
   transform="translate(0,-398)">
</g>
<g
   id="g44"
   transform="translate(0,-398)">
</g>
<g
   id="g46"
   transform="translate(0,-398)">
</g>
<g
   id="g48"
   transform="translate(0,-398)">
</g>
<g
   id="g889"
   transform="translate(7.1251073)"><path
     style="fill:#e2e5e7;stroke-width:0.22265603"
     d="M 21.374953,0 C 17.456212,0 14.249969,3.2062467 14.249969,7.1249956 V 106.875 c 0,3.91874 3.206243,7.125 7.124984,7.125 h 71.249841 c 3.918741,0 7.124987,-3.20626 7.124987,-7.125 V 28.499991 L 71.249843,0 Z"
     id="path862"
     inkscape:connector-curvature="0" /><path
     style="fill:#b0b7bd;stroke-width:0.22265603"
     d="M 78.374829,28.499991 H 99.749781 L 71.249843,0 v 21.374996 c 0,3.918749 3.206246,7.124995 7.124986,7.124995 z"
     id="path864"
     inkscape:connector-curvature="0" /><polygon
     style="fill:#cad1d8"
     points="480,128 480,224 384,128 "
     id="polygon866"
     transform="matrix(0.22265577,0,0,0.22265626,-7.1249843,0)" /><path
     style="fill:#f15642;stroke-width:0.22265603"
     d="m 85.499816,92.625004 c 0,1.959366 -1.603127,3.562494 -3.562493,3.562494 H 3.5624926 C 1.6031216,96.187498 0,94.58437 0,92.625004 V 56.999991 C 0,55.040626 1.6031216,53.437498 3.5624926,53.437498 H 81.937323 c 1.959366,0 3.562493,1.603128 3.562493,3.562493 z"
     id="path868"
     inkscape:connector-curvature="0" /><g
     id="g876"
     transform="matrix(0.22265577,0,0,0.22265626,-7.1249843,0)">
	<path
   style="fill:#ffffff"
   d="m 101.744,303.152 c 0,-4.224 3.328,-8.832 8.688,-8.832 h 29.552 c 16.64,0 31.616,11.136 31.616,32.48 0,20.224 -14.976,31.488 -31.616,31.488 h -21.36 v 16.896 c 0,5.632 -3.584,8.816 -8.192,8.816 -4.224,0 -8.688,-3.184 -8.688,-8.816 z m 16.88,7.28 v 31.872 h 21.36 c 8.576,0 15.36,-7.568 15.36,-15.504 0,-8.944 -6.784,-16.368 -15.36,-16.368 z"
   id="path870"
   inkscape:connector-curvature="0" />
	<path
   style="fill:#ffffff"
   d="m 196.656,384 c -4.224,0 -8.832,-2.304 -8.832,-7.92 v -72.672 c 0,-4.592 4.608,-7.936 8.832,-7.936 h 29.296 c 58.464,0 57.184,88.528 1.152,88.528 z m 8.064,-72.912 V 368.4 h 21.232 c 34.544,0 36.08,-57.312 0,-57.312 z"
   id="path872"
   inkscape:connector-curvature="0" />
	<path
   style="fill:#ffffff"
   d="m 303.872,312.112 v 20.336 h 32.624 c 4.608,0 9.216,4.608 9.216,9.072 0,4.224 -4.608,7.68 -9.216,7.68 h -32.624 v 26.864 c 0,4.48 -3.184,7.92 -7.664,7.92 -5.632,0 -9.072,-3.44 -9.072,-7.92 v -72.672 c 0,-4.592 3.456,-7.936 9.072,-7.936 h 44.912 c 5.632,0 8.96,3.344 8.96,7.936 0,4.096 -3.328,8.704 -8.96,8.704 h -37.248 z"
   id="path874"
   inkscape:connector-curvature="0" />
</g><path
     style="fill:#cad1d8;stroke-width:0.22265603"
     d="M 81.937323,96.187498 H 14.249969 V 99.75 h 67.687354 c 1.959366,0 3.562493,-1.603128 3.562493,-3.562502 v -3.562494 c 0,1.959366 -1.603127,3.562494 -3.562493,3.562494 z"
     id="path878"
     inkscape:connector-curvature="0" /></g></svg>