<?xml version="1.0" encoding="UTF-8" standalone="no"?>
<svg
   xmlns:dc="http://purl.org/dc/elements/1.1/"
   xmlns:cc="http://creativecommons.org/ns#"
   xmlns:rdf="http://www.w3.org/1999/02/22-rdf-syntax-ns#"
   xmlns:svg="http://www.w3.org/2000/svg"
   xmlns="http://www.w3.org/2000/svg"
   xmlns:sodipodi="http://sodipodi.sourceforge.net/DTD/sodipodi-0.dtd"
   xmlns:inkscape="http://www.inkscape.org/namespaces/inkscape"
   id="_x31__x2C_5"
   enable-background="new 0 0 24 24"
   height="64"
   viewBox="0 0 3 3"
   width="64"
   version="1.1"
   sodipodi:docname="agencia.svg"
   inkscape:version="0.92.3 (2405546, 2018-03-11)">
  <metadata
     id="metadata37">
    <rdf:RDF>
      <cc:Work
         rdf:about="">
        <dc:format>image/svg+xml</dc:format>
        <dc:type
           rdf:resource="http://purl.org/dc/dcmitype/StillImage" />
        <dc:title></dc:title>
      </cc:Work>
    </rdf:RDF>
  </metadata>
  <defs
     id="defs35" />
  <sodipodi:namedview
     pagecolor="#ffffff"
     bordercolor="#666666"
     borderopacity="1"
     objecttolerance="10"
     gridtolerance="10"
     guidetolerance="10"
     inkscape:pageopacity="0"
     inkscape:pageshadow="2"
     inkscape:window-width="1920"
     inkscape:window-height="968"
     id="namedview33"
     showgrid="false"
     inkscape:zoom="0.69770813"
     inkscape:cx="352.89833"
     inkscape:cy="242.91248"
     inkscape:window-x="1920"
     inkscape:window-y="27"
     inkscape:window-maximized="1"
     inkscape:current-layer="_x31__x2C_5" />
  <g
     id="g4564"
     transform="scale(0.125)">
    <path
       style="fill:#ffffff"
       id="path2"
       d="M 18.25,24 H 9.75 C 9.336,24 9,23.664 9,23.25 9,22.836 9.336,22.5 9.75,22.5 h 8.5 c 0.414,0 0.75,0.336 0.75,0.75 0,0.414 -0.336,0.75 -0.75,0.75 z"
       inkscape:connector-curvature="0" />
    <path
       style="fill:#ffffff"
       id="path4"
       d="M 9.25,6 H 2.75 C 2.336,6 2,5.664 2,5.25 V 3.75 C 2,2.785 2.785,2 3.75,2 h 4.5 C 9.215,2 10,2.785 10,3.75 v 1.5 C 10,5.664 9.664,6 9.25,6 Z M 3.5,4.5 h 5 V 3.75 C 8.5,3.612 8.388,3.5 8.25,3.5 H 3.75 C 3.612,3.5 3.5,3.612 3.5,3.75 Z"
       inkscape:connector-curvature="0" />
    <path
       style="fill:#ffffff"
       id="path6"
       d="M 6,3.5 C 5.586,3.5 5.25,3.164 5.25,2.75 v -2 C 5.25,0.336 5.586,0 6,0 6.414,0 6.75,0.336 6.75,0.75 v 2 C 6.75,3.164 6.414,3.5 6,3.5 Z"
       inkscape:connector-curvature="0" />
    <path
       style="fill:#ffffff"
       id="path8"
       d="m 15,24 c -0.414,0 -0.75,-0.336 -0.75,-0.75 v -3.745 c 0,-0.414 0.336,-0.75 0.75,-0.75 0.414,0 0.75,0.336 0.75,0.75 V 23.25 C 15.75,23.664 15.414,24 15,24 Z"
       inkscape:connector-curvature="0" />
    <path
       style="fill:#ffffff"
       id="path10"
       d="m 15,20 c -1.103,0 -2,-0.897 -2,-2 0,-1.103 0.897,-2 2,-2 1.103,0 2,0.897 2,2 0,1.103 -0.897,2 -2,2 z m 0,-2.5 c -0.275,0 -0.5,0.224 -0.5,0.5 0,0.276 0.225,0.5 0.5,0.5 0.275,0 0.5,-0.224 0.5,-0.5 0,-0.276 -0.225,-0.5 -0.5,-0.5 z"
       inkscape:connector-curvature="0" />
    <path
       style="fill:#ffffff"
       id="path12"
       d="M 11.25,24 H 0.75 C 0.336,24 0,23.664 0,23.25 v -17 C 0,5.285 0.785,4.5 1.75,4.5 h 7.5 C 9.664,4.5 10,4.836 10,5.25 10,5.664 9.664,6 9.25,6 H 1.75 C 1.614,6 1.5,6.114 1.5,6.25 V 22.5 h 9 v -8.53 c 0,-0.414 0.336,-0.75 0.75,-0.75 0.414,0 0.75,0.336 0.75,0.75 v 9.28 C 12,23.664 11.664,24 11.25,24 Z"
       inkscape:connector-curvature="0" />
    <path
       style="fill:#ffffff"
       id="path14"
       d="M 7.75,24 H 4.25 C 3.836,24 3.5,23.664 3.5,23.25 v -4.5 C 3.5,18.336 3.836,18 4.25,18 h 3.5 c 0.414,0 0.75,0.336 0.75,0.75 v 4.5 C 8.5,23.664 8.164,24 7.75,24 Z M 5,22.5 h 2 v -3 H 5 Z"
       inkscape:connector-curvature="0" />
    <path
       style="fill:#ffffff"
       id="path16"
       d="M 7.25,15 H 4.75 C 4.336,15 4,14.664 4,14.25 4,13.836 4.336,13.5 4.75,13.5 h 2.5 C 7.664,13.5 8,13.836 8,14.25 8,14.664 7.664,15 7.25,15 Z"
       inkscape:connector-curvature="0" />
    <path
       style="fill:#ffffff"
       id="path18"
       d="M 7.25,9 H 4.75 C 4.336,9 4,8.664 4,8.25 4,7.836 4.336,7.5 4.75,7.5 h 2.5 C 7.664,7.5 8,7.836 8,8.25 8,8.664 7.664,9 7.25,9 Z"
       inkscape:connector-curvature="0" />
    <path
       style="fill:#ffffff"
       id="path20"
       d="M 7.25,12 H 4.75 C 4.336,12 4,11.664 4,11.25 4,10.836 4.336,10.5 4.75,10.5 h 2.5 C 7.664,10.5 8,10.836 8,11.25 8,11.664 7.664,12 7.25,12 Z"
       inkscape:connector-curvature="0" />
    <path
       style="fill:#ffffff"
       id="path22"
       d="M 17.5,14 C 13.916,14 11,11.084 11,7.5 11,3.916 13.916,1 17.5,1 21.084,1 24,3.916 24,7.5 24,11.084 21.084,14 17.5,14 Z m 0,-11.5 c -2.757,0 -5,2.243 -5,5 0,2.757 2.243,5 5,5 2.757,0 5,-2.243 5,-5 0,-2.757 -2.243,-5 -5,-5 z"
       inkscape:connector-curvature="0" />
    <text
       id="text4549"
       y="11.054963"
       x="13.683622"
       style="font-style:normal;font-variant:normal;font-weight:normal;font-stretch:normal;font-size:9.51369381px;line-height:0;font-family:'Arial Black';-inkscape-font-specification:'Arial Black, ';font-variant-ligatures:normal;font-variant-caps:normal;font-variant-numeric:normal;font-feature-settings:normal;text-align:start;letter-spacing:0px;word-spacing:0px;writing-mode:lr-tb;text-anchor:start;fill:#e6e6e6;fill-opacity:1;stroke:none;stroke-width:0.71352702"
       xml:space="preserve"><tspan
         style="fill:#e6e6e6;stroke-width:0.71352702"
         y="11.054963"
         x="13.683622"
         id="tspan4547"
         sodipodi:role="line">C</tspan></text>
  </g>
</svg>
