<?xml version="1.0" encoding="UTF-8" standalone="no"?>
<!-- Generator: Adobe Illustrator 19.0.0, SVG Export Plug-In . SVG Version: 6.00 Build 0)  -->

<svg
   xmlns:dc="http://purl.org/dc/elements/1.1/"
   xmlns:cc="http://creativecommons.org/ns#"
   xmlns:rdf="http://www.w3.org/1999/02/22-rdf-syntax-ns#"
   xmlns:svg="http://www.w3.org/2000/svg"
   xmlns="http://www.w3.org/2000/svg"
   xmlns:sodipodi="http://sodipodi.sourceforge.net/DTD/sodipodi-0.dtd"
   xmlns:inkscape="http://www.inkscape.org/namespaces/inkscape"
   version="1.1"
   id="Layer_1"
   x="0px"
   y="0px"
   viewBox="0 0 64 64"
   xml:space="preserve"
   sodipodi:docname="painel.svg"
   width="64"
   height="64"
   inkscape:version="0.92.3 (2405546, 2018-03-11)"><metadata
   id="metadata43"><rdf:RDF><cc:Work
       rdf:about=""><dc:format>image/svg+xml</dc:format><dc:type
         rdf:resource="http://purl.org/dc/dcmitype/StillImage" /><dc:title></dc:title></cc:Work></rdf:RDF></metadata><defs
   id="defs41" /><sodipodi:namedview
   pagecolor="#ffffff"
   bordercolor="#666666"
   borderopacity="1"
   objecttolerance="10"
   gridtolerance="10"
   guidetolerance="10"
   inkscape:pageopacity="0"
   inkscape:pageshadow="2"
   inkscape:window-width="1920"
   inkscape:window-height="968"
   id="namedview39"
   showgrid="false"
   inkscape:zoom="1.9734166"
   inkscape:cx="100.47026"
   inkscape:cy="14.53832"
   inkscape:window-x="1920"
   inkscape:window-y="27"
   inkscape:window-maximized="1"
   inkscape:current-layer="Layer_1" />
<g
   id="g853"
   transform="matrix(0.125,0,0,0.125,0.05014394,0)"
   style="fill:#ffffff"><g
     id="g6"
     style="fill:#ffffff">
	<g
   id="g4"
   style="fill:#ffffff">
		<path
   id="path2"
   d="m 501.544,288.716 -50.087,-50.087 c -3.13,-3.13 -7.377,-4.89 -11.805,-4.89 H 306.087 v -33.391 h 83.478 c 9.22,0 16.696,-7.475 16.696,-16.696 V 83.478 c 0,-9.22 -7.475,-16.696 -16.696,-16.696 H 306.087 V 16.696 C 306.087,7.476 298.612,0 289.391,0 h -66.783 c -9.22,0 -16.696,7.475 -16.696,16.696 V 66.783 H 72.348 c -4.428,0 -8.674,1.76 -11.805,4.891 L 10.456,121.76 c -6.52,6.52 -6.52,17.091 0,23.611 l 50.086,50.086 c 3.131,3.131 7.378,4.891 11.806,4.891 h 133.565 v 33.391 h -83.478 c -9.22,0 -16.696,7.475 -16.696,16.696 v 100.174 c 0,9.22 7.475,16.696 16.696,16.696 h 83.478 v 111.304 h -50.087 c -9.22,0 -16.696,7.475 -16.696,16.696 0,9.221 7.476,16.695 16.696,16.695 7.804,0 195.238,0 200.348,0 9.22,0 16.696,-7.475 16.696,-16.696 0,-9.221 -7.475,-16.696 -16.696,-16.696 H 306.087 V 367.304 h 133.565 c 4.429,0 8.675,-1.76 11.805,-4.891 l 50.087,-50.087 c 6.52,-6.52 6.52,-17.09 0,-23.61 z M 239.304,33.391 h 33.391 V 66.782 H 239.304 Z M 79.263,166.957 45.872,133.566 79.263,100.175 H 372.87 v 66.783 H 79.263 Z m 193.433,33.391 v 33.391 h -33.391 v -33.391 z m 0,278.261 H 239.305 V 367.304 h 33.391 z M 432.737,333.913 H 139.13 V 267.13 h 293.606 l 33.391,33.391 z"
   inkscape:connector-curvature="0"
   style="fill:#ffffff" />
	</g>
</g></g>
<g
   id="g8"
   transform="translate(0,-448)">
</g>
<g
   id="g10"
   transform="translate(0,-448)">
</g>
<g
   id="g12"
   transform="translate(0,-448)">
</g>
<g
   id="g14"
   transform="translate(0,-448)">
</g>
<g
   id="g16"
   transform="translate(0,-448)">
</g>
<g
   id="g18"
   transform="translate(0,-448)">
</g>
<g
   id="g20"
   transform="translate(0,-448)">
</g>
<g
   id="g22"
   transform="translate(0,-448)">
</g>
<g
   id="g24"
   transform="translate(0,-448)">
</g>
<g
   id="g26"
   transform="translate(0,-448)">
</g>
<g
   id="g28"
   transform="translate(0,-448)">
</g>
<g
   id="g30"
   transform="translate(0,-448)">
</g>
<g
   id="g32"
   transform="translate(0,-448)">
</g>
<g
   id="g34"
   transform="translate(0,-448)">
</g>
<g
   id="g36"
   transform="translate(0,-448)">
</g>
</svg>