<?xml version="1.0" encoding="UTF-8" standalone="no"?>
<!-- Generator: Adobe Illustrator 19.0.0, SVG Export Plug-In . SVG Version: 6.00 Build 0)  -->

<svg
   xmlns:dc="http://purl.org/dc/elements/1.1/"
   xmlns:cc="http://creativecommons.org/ns#"
   xmlns:rdf="http://www.w3.org/1999/02/22-rdf-syntax-ns#"
   xmlns:svg="http://www.w3.org/2000/svg"
   xmlns="http://www.w3.org/2000/svg"
   xmlns:sodipodi="http://sodipodi.sourceforge.net/DTD/sodipodi-0.dtd"
   xmlns:inkscape="http://www.inkscape.org/namespaces/inkscape"
   version="1.1"
   id="Capa_1"
   x="0px"
   y="0px"
   viewBox="0 0 64 64"
   xml:space="preserve"
   sodipodi:docname="certidao.svg"
   width="64"
   height="64"
   inkscape:version="0.92.3 (2405546, 2018-03-11)"><metadata
   id="metadata67"><rdf:RDF><cc:Work
       rdf:about=""><dc:format>image/svg+xml</dc:format><dc:type
         rdf:resource="http://purl.org/dc/dcmitype/StillImage" /><dc:title></dc:title></cc:Work></rdf:RDF></metadata><defs
   id="defs65" /><sodipodi:namedview
   pagecolor="#ffffff"
   bordercolor="#666666"
   borderopacity="1"
   objecttolerance="10"
   gridtolerance="10"
   guidetolerance="10"
   inkscape:pageopacity="0"
   inkscape:pageshadow="2"
   inkscape:window-width="1920"
   inkscape:window-height="968"
   id="namedview63"
   showgrid="false"
   inkscape:zoom="4.2099554"
   inkscape:cx="37.363835"
   inkscape:cy="11.807568"
   inkscape:window-x="0"
   inkscape:window-y="27"
   inkscape:window-maximized="1"
   inkscape:current-layer="Capa_1" />
<g
   id="g6"
   transform="matrix(0.1333335,0,0,0.13333333,-0.1318901,0)"
   style="fill:#ffffff">
	<g
   id="g4"
   style="fill:#ffffff">
		<path
   d="m 462.763,137.856 c -0.8,-1.952 -1.984,-3.712 -3.456,-5.184 L 331.339,4.704 C 329.867,3.232 328.107,2.048 326.155,1.248 324.235,0.448 322.155,0 320.011,0 h -208 c -17.632,0 -32,14.368 -32,32 v 144 c 0,8.832 7.168,16 16,16 8.832,0 16,-7.168 16,-16 V 32 h 192 v 96 c 0,17.632 14.368,32 32,32 h 96 v 256 h -192 c -8.832,0 -16,7.168 -16,16 0,8.832 7.168,16 16,16 h 192 c 17.632,0 32,-14.368 32,-32 V 144 c 0,-2.144 -0.448,-4.224 -1.248,-6.144 z M 336.011,128 V 54.624 L 409.387,128 Z"
   id="path2"
   inkscape:connector-curvature="0"
   style="fill:#ffffff" />
	</g>
</g>
<g
   id="g12"
   transform="matrix(0.1333335,0,0,0.13333333,-0.1318901,0)"
   style="fill:#ffffff">
	<g
   id="g10"
   style="fill:#ffffff">
		<path
   d="m 175.563,460.128 -24.512,-98.336 c 15.296,-14.592 24.96,-35.04 24.96,-57.792 0,-44.096 -35.904,-80 -80,-80 -44.096,0 -80,35.904 -80,80 0,22.752 9.664,43.2 24.96,57.792 l -24.512,98.336 c -1.504,6.048 0.672,12.448 5.536,16.352 4.864,3.936 11.584,4.608 17.152,1.824 l 56.864,-28.416 56.832,28.416 c 2.272,1.12 4.736,1.696 7.168,1.696 3.552,0 7.104,-1.184 10.016,-3.52 4.864,-3.904 7.04,-10.304 5.536,-16.352 z m -72.416,-42.432 c -4.512,-2.24 -9.824,-2.24 -14.304,0 l -32.928,16.448 13.696,-54.976 c 8.32,2.944 17.12,4.832 26.4,4.832 9.28,0 18.08,-1.888 26.368,-4.832 l 13.696,54.976 z M 96.011,352 c -26.464,0 -48,-21.536 -48,-48 0,-26.464 21.536,-48 48,-48 26.464,0 48,21.536 48,48 0,26.464 -21.536,48 -48,48 z"
   id="path8"
   inkscape:connector-curvature="0"
   style="fill:#ffffff" />
	</g>
</g>
<g
   id="g18"
   transform="matrix(0.1333335,0,0,0.13333333,-0.1318901,0)"
   style="fill:#ffffff">
	<g
   id="g16"
   style="fill:#ffffff">
		<path
   d="m 256.011,96 h -96 c -8.832,0 -16,7.168 -16,16 0,8.832 7.168,16 16,16 h 96 c 8.832,0 16,-7.168 16,-16 0,-8.832 -7.168,-16 -16,-16 z"
   id="path14"
   inkscape:connector-curvature="0"
   style="fill:#ffffff" />
	</g>
</g>
<g
   id="g24"
   transform="matrix(0.1333335,0,0,0.13333333,-0.1318901,0)"
   style="fill:#ffffff">
	<g
   id="g22"
   style="fill:#ffffff">
		<path
   d="m 384.011,192 h -192 c -8.832,0 -16,7.168 -16,16 0,8.832 7.168,16 16,16 h 192 c 8.832,0 16,-7.168 16,-16 0,-8.832 -7.168,-16 -16,-16 z"
   id="path20"
   inkscape:connector-curvature="0"
   style="fill:#ffffff" />
	</g>
</g>
<g
   id="g30"
   transform="matrix(0.1333335,0,0,0.13333333,-0.1318901,0)"
   style="fill:#ffffff">
	<g
   id="g28"
   style="fill:#ffffff">
		<path
   d="m 384.011,288 h -160 c -8.832,0 -16,7.168 -16,16 0,8.832 7.168,16 16,16 h 160 c 8.832,0 16,-7.168 16,-16 0,-8.832 -7.168,-16 -16,-16 z"
   id="path26"
   inkscape:connector-curvature="0"
   style="fill:#ffffff" />
	</g>
</g>
<g
   id="g32"
   transform="translate(0,-416)">
</g>
<g
   id="g34"
   transform="translate(0,-416)">
</g>
<g
   id="g36"
   transform="translate(0,-416)">
</g>
<g
   id="g38"
   transform="translate(0,-416)">
</g>
<g
   id="g40"
   transform="translate(0,-416)">
</g>
<g
   id="g42"
   transform="translate(0,-416)">
</g>
<g
   id="g44"
   transform="translate(0,-416)">
</g>
<g
   id="g46"
   transform="translate(0,-416)">
</g>
<g
   id="g48"
   transform="translate(0,-416)">
</g>
<g
   id="g50"
   transform="translate(0,-416)">
</g>
<g
   id="g52"
   transform="translate(0,-416)">
</g>
<g
   id="g54"
   transform="translate(0,-416)">
</g>
<g
   id="g56"
   transform="translate(0,-416)">
</g>
<g
   id="g58"
   transform="translate(0,-416)">
</g>
<g
   id="g60"
   transform="translate(0,-416)">
</g>
</svg>