<?xml version="1.0" encoding="UTF-8" standalone="no"?>
<svg
   xmlns:dc="http://purl.org/dc/elements/1.1/"
   xmlns:cc="http://creativecommons.org/ns#"
   xmlns:rdf="http://www.w3.org/1999/02/22-rdf-syntax-ns#"
   xmlns:svg="http://www.w3.org/2000/svg"
   xmlns="http://www.w3.org/2000/svg"
   xmlns:sodipodi="http://sodipodi.sourceforge.net/DTD/sodipodi-0.dtd"
   xmlns:inkscape="http://www.inkscape.org/namespaces/inkscape"
   viewBox="0 0 64 63.999998"
   version="1.1"
   id="svg12"
   sodipodi:docname="ferramentas.svg"
   width="64"
   height="64"
   inkscape:version="0.92.3 (2405546, 2018-03-11)">
  <metadata
     id="metadata18">
    <rdf:RDF>
      <cc:Work
         rdf:about="">
        <dc:format>image/svg+xml</dc:format>
        <dc:type
           rdf:resource="http://purl.org/dc/dcmitype/StillImage" />
        <dc:title />
      </cc:Work>
    </rdf:RDF>
  </metadata>
  <defs
     id="defs16" />
  <sodipodi:namedview
     pagecolor="#ffffff"
     bordercolor="#666666"
     borderopacity="1"
     objecttolerance="10"
     gridtolerance="10"
     guidetolerance="10"
     inkscape:pageopacity="0"
     inkscape:pageshadow="2"
     inkscape:window-width="1920"
     inkscape:window-height="968"
     id="namedview14"
     showgrid="false"
     inkscape:zoom="7.4184319"
     inkscape:cx="35.25726"
     inkscape:cy="34.342008"
     inkscape:window-x="1920"
     inkscape:window-y="27"
     inkscape:window-maximized="1"
     inkscape:current-layer="g1255" />
  <g
     id="g1255"
     transform="matrix(0.12500381,0,0,0.12500381,0.43749809,-0.00292482)"
     style="fill:#ffe6d5">
    <path
       id="path2"
       d="m 347.33984,155.14844 c -5.51953,0 -10,4.46875 -10,9.99609 0,5.52344 4.48047,10 10,10 5.53125,0 10,-4.47656 10,-10 0,-5.52734 -4.46875,-9.99609 -10,-9.99609 z m 0,0"
       inkscape:connector-curvature="0"
       style="fill:#ffffff" />
    <path
       id="path4"
       d="m 165.64453,336.83984 c -5.53125,0 -10,4.48047 -10,10 0,5.53125 4.46875,10 10,10 5.51953,0 10,-4.46875 10,-10 0,-5.51953 -4.48047,-10 -10,-10 z m 0,0"
       inkscape:connector-curvature="0"
       style="fill:#ffffff" />
    <path
       id="path6"
       d="m 500.05859,61.519531 c -3.375,-0.785156 -6.92187,0.234375 -9.35937,2.695313 L 449.24219,106 h -19.875 L 407.48828,83.332031 V 63.179688 l 40.86328,-41.472657 c 2.41797,-2.453125 3.40235,-5.980469 2.60157,-9.335937 C 450.15625,9.019531 447.6875,6.316406 444.42188,5.214844 434.15625,1.753906 423.41406,0 412.48828,0 379.91797,0 350.32812,15.1875 331.30469,41.667969 313.5,66.457031 308.01172,96.835938 315.875,125.91016 L 242.21484,199.57031 119.49609,76.570312 V 52.429688 c 0,-3.511719 -1.84375,-6.769532 -4.85546,-8.574219 L 43.933594,1.425781 C 39.996094,-0.9375 34.960938,-0.316406 31.71875,2.929688 L 3.4375,31.207031 c -3.242188,3.246094 -3.863281,8.28125 -1.503906,12.21875 l 42.421875,70.707029 c 1.804687,3.01172 5.058593,4.85157 8.570312,4.85547 l 24.132813,0.008 122.730466,123 -73.3789,73.37891 C 97.335938,307.51562 66.941406,313.01172 42.140625,330.82812 15.675781,349.83984 0.5,379.42187 0.5,411.99219 c 0,10.92187 1.753906,21.66797 5.214844,31.92968 1.105468,3.28516 3.835937,5.76563 7.210937,6.54688 3.378907,0.78516 6.921875,-0.23438 9.363281,-2.69531 l 41.453126,-41.78125 h 19.984374 l 22.769528,22.76953 v 19.98437 l -41.781246,41.45313 c -2.460938,2.4414 -3.480469,5.98437 -2.695313,9.36328 0.78125,3.375 3.261719,6.10547 6.546875,7.21094 10.261719,3.46093 21.007813,5.21484 31.929684,5.21484 32.57032,0 62.14844,-15.17969 81.16407,-41.64453 17.8164,-24.80078 23.3125,-55.19141 15.45312,-84.26563 l 58.9336,-58.93359 13.5,14.66406 L 263.35156,348 c -3.90625,3.90625 -3.90625,10.23828 0,14.14453 3.90625,3.90235 10.23438,3.90235 14.14453,0 l 5.60938,-5.60937 126.66406,137.58593 c 0.0937,0.10157 0.19141,0.19922 0.28906,0.29688 23.4375,23.4375 61.41016,23.44531 84.85938,-0.004 23.38281,-23.39453 23.38281,-61.46094 0,-84.85547 -0.10156,-0.10156 -0.20703,-0.19922 -0.3125,-0.29687 l -137.80078,-126.42188 5.54687,-5.54687 c 3.90625,-3.90235 3.90625,-10.23438 0,-14.14063 -3.90625,-3.90625 -10.23437,-3.90625 -14.14453,0 l -6.15234,6.15625 -14.69141,-13.48437 59.21875,-59.21875 c 8.41797,2.25 17.10547,3.39062 25.90625,3.39062 55.14063,0 99.99609,-44.85937 99.99609,-99.99609 0,-10.925781 -1.7539,-21.667969 -5.21484,-31.933594 -1.10547,-3.285156 -3.83594,-5.765625 -7.21094,-6.546875 z"
       inkscape:connector-curvature="0"
       style="fill:#ffffff"
       sodipodi:nodetypes="cccccccccsccccscccccccccccsccccccccccscccccccccccccccsccccssccc" />
    <path
       id="path8"
       d="M 311.98828,186.35547 186.85156,311.49219 c -3.90234,3.90234 -3.90234,10.23437 0,14.14062 3.90625,3.90625 10.23828,3.90625 14.14453,0 L 326.13281,200.49609 c 3.90625,-3.90234 3.90625,-10.23437 0,-14.14062 -3.90625,-3.90625 -10.23828,-3.90625 -14.14453,0 z m 0,0"
       inkscape:connector-curvature="0"
       style="fill:#ffffff" />
    <path
       id="path10"
       d="m 438.35547,452 c 3.90625,3.89453 10.23828,3.89453 14.14453,-0.0234 3.89844,-3.91015 3.88672,-10.24219 -0.0234,-14.14062 l -90.13672,-89.84766 c -3.91015,-3.89844 -10.24609,-3.88672 -14.14062,0.0234 -3.90235,3.91406 -3.89063,10.24219 0.0195,14.14062 z m 0,0"
       inkscape:connector-curvature="0"
       style="fill:#ffffff" />
  </g>
</svg>
