<?xml version="1.0" encoding="UTF-8" standalone="no"?>
<svg
   xmlns:dc="http://purl.org/dc/elements/1.1/"
   xmlns:cc="http://creativecommons.org/ns#"
   xmlns:rdf="http://www.w3.org/1999/02/22-rdf-syntax-ns#"
   xmlns:svg="http://www.w3.org/2000/svg"
   xmlns="http://www.w3.org/2000/svg"
   xmlns:sodipodi="http://sodipodi.sourceforge.net/DTD/sodipodi-0.dtd"
   xmlns:inkscape="http://www.inkscape.org/namespaces/inkscape"
   height="64"
   viewBox="0 0 48.000001 47.999999"
   width="64"
   version="1.1"
   id="svg6"
   sodipodi:docname="financeira.svg"
   inkscape:version="0.92.3 (2405546, 2018-03-11)">
  <metadata
     id="metadata12">
    <rdf:RDF>
      <cc:Work
         rdf:about="">
        <dc:format>image/svg+xml</dc:format>
        <dc:type
           rdf:resource="http://purl.org/dc/dcmitype/StillImage" />
        <dc:title></dc:title>
      </cc:Work>
    </rdf:RDF>
  </metadata>
  <defs
     id="defs10" />
  <sodipodi:namedview
     pagecolor="#ffffff"
     bordercolor="#666666"
     borderopacity="1"
     objecttolerance="10"
     gridtolerance="10"
     guidetolerance="10"
     inkscape:pageopacity="0"
     inkscape:pageshadow="2"
     inkscape:window-width="1920"
     inkscape:window-height="968"
     id="namedview8"
     showgrid="false"
     units="px"
     inkscape:zoom="0.26164055"
     inkscape:cx="2080.6612"
     inkscape:cy="223.49548"
     inkscape:window-x="1920"
     inkscape:window-y="27"
     inkscape:window-maximized="1"
     inkscape:current-layer="svg6" />
  <g
     id="g824"
     transform="matrix(0.09375,0,0,0.09375,0,-3.3177983e-5)">
    <path
       style="fill:#ffffff"
       id="path2"
       d="m 76,240 c 12.109375,0 23.109375,-4.81641 31.20703,-12.625 l 44.14844,22.07422 C 151.12891,251.26953 151,253.11719 151,255 c 0,24.8125 20.1875,45 45,45 24.8125,0 45,-20.1875 45,-45 0,-6.9375 -1.58203,-13.51563 -4.39844,-19.39063 l 60.00781,-60.00781 C 302.48437,178.41797 309.0625,180 316,180 c 24.8125,0 45,-20.1875 45,-45 0,-4.6875 -0.72266,-9.20703 -2.05859,-13.45703 L 411.07422,82.445312 C 418.21484,87.214844 426.78516,90 436,90 460.8125,90 481,69.8125 481,45 481,20.1875 460.8125,0 436,0 c -24.8125,0 -45,20.1875 -45,45 0,4.6875 0.72266,9.207031 2.05859,13.457031 L 340.92578,97.554688 C 333.78516,92.785156 325.21484,90 316,90 c -24.8125,0 -45,20.1875 -45,45 0,6.9375 1.58203,13.51562 4.39844,19.39062 l -60.00782,60.00782 C 209.51562,211.58203 202.9375,210 196,210 c -12.10938,0 -23.10938,4.81641 -31.20703,12.625 L 120.64453,200.55078 C 120.87109,198.73047 121,196.88281 121,195 c 0,-24.8125 -20.1875,-45 -45,-45 -24.8125,0 -45,20.1875 -45,45 0,24.8125 20.1875,45 45,45 z M 436,30 c 8.26953,0 15,6.730469 15,15 0,8.269531 -6.73047,15 -15,15 -8.26953,0 -15,-6.730469 -15,-15 0,-8.269531 6.73047,-15 15,-15 z m -120,90 c 8.26953,0 15,6.73047 15,15 0,8.26953 -6.73047,15 -15,15 -8.26953,0 -15,-6.73047 -15,-15 0,-8.26953 6.73047,-15 15,-15 z M 196,240 c 8.26953,0 15,6.73047 15,15 0,8.26953 -6.73047,15 -15,15 -8.26953,0 -15,-6.73047 -15,-15 0,-8.26953 6.73047,-15 15,-15 z M 76,180 c 8.269531,0 15,6.73047 15,15 0,8.26953 -6.730469,15 -15,15 -8.269531,0 -15,-6.73047 -15,-15 0,-8.26953 6.730469,-15 15,-15 z m 0,0"
       inkscape:connector-curvature="0" />
    <path
       style="fill:#ffffff"
       id="path4"
       d="M 497,482 H 481 V 165 c 0,-8.28516 -6.71484,-15 -15,-15 h -60 c -8.28516,0 -15,6.71484 -15,15 V 482 H 361 V 255 c 0,-8.28516 -6.71484,-15 -15,-15 h -60 c -8.28516,0 -15,6.71484 -15,15 V 482 H 241 V 375 c 0,-8.28516 -6.71484,-15 -15,-15 h -60 c -8.28516,0 -15,6.71484 -15,15 V 482 H 121 V 315 c 0,-8.28516 -6.71484,-15 -15,-15 H 46 c -8.285156,0 -15,6.71484 -15,15 V 482 H 15 c -8.285156,0 -15,6.71484 -15,15 0,8.28516 6.714844,15 15,15 h 482 c 8.28516,0 15,-6.71484 15,-15 0,-8.28516 -6.71484,-15 -15,-15 z M 421,180 h 30 v 302 h -30 z m -120,90 h 30 V 482 H 301 Z M 181,390 h 30 v 92 H 181 Z M 61,330 H 91 V 482 H 61 Z m 0,0"
       inkscape:connector-curvature="0" />
  </g>
</svg>
