<?xml version="1.0" encoding="UTF-8" standalone="no"?>
<svg
   xmlns:dc="http://purl.org/dc/elements/1.1/"
   xmlns:cc="http://creativecommons.org/ns#"
   xmlns:rdf="http://www.w3.org/1999/02/22-rdf-syntax-ns#"
   xmlns:svg="http://www.w3.org/2000/svg"
   xmlns="http://www.w3.org/2000/svg"
   xmlns:sodipodi="http://sodipodi.sourceforge.net/DTD/sodipodi-0.dtd"
   xmlns:inkscape="http://www.inkscape.org/namespaces/inkscape"
   id="Capa_1"
   enable-background="new 0 0 512 512"
   height="64"
   viewBox="0 0 64 64"
   width="64"
   version="1.1"
   sodipodi:docname="pessoas.svg"
   inkscape:version="0.92.3 (2405546, 2018-03-11)">
  <metadata
     id="metadata13">
    <rdf:RDF>
      <cc:Work
         rdf:about="">
        <dc:format>image/svg+xml</dc:format>
        <dc:type
           rdf:resource="http://purl.org/dc/dcmitype/StillImage" />
        <dc:title></dc:title>
      </cc:Work>
    </rdf:RDF>
  </metadata>
  <defs
     id="defs11" />
  <sodipodi:namedview
     pagecolor="#ffffff"
     bordercolor="#666666"
     borderopacity="1"
     objecttolerance="10"
     gridtolerance="10"
     guidetolerance="10"
     inkscape:pageopacity="0"
     inkscape:pageshadow="2"
     inkscape:window-width="1920"
     inkscape:window-height="995"
     id="namedview9"
     showgrid="false"
     inkscape:zoom="1.4440308"
     inkscape:cx="256"
     inkscape:cy="75.670747"
     inkscape:window-x="0"
     inkscape:window-y="0"
     inkscape:window-maximized="1"
     inkscape:current-layer="Capa_1" />
  <g
     id="g823"
     transform="scale(0.125)"
     style="fill:#ffffff">
    <g
       id="g6"
       style="fill:#ffffff">
      <path
         id="path2"
         d="M 488.252,227.093 C 475.167,120.933 391.04,36.806 284.907,23.746 282.235,10.227 270.292,0 256,0 241.708,0 229.764,10.228 227.093,23.748 120.931,36.833 36.804,120.96 23.746,227.093 10.227,229.765 0,241.709 0,256 c 0,14.291 10.227,26.235 23.746,28.907 13.06,106.133 97.187,190.26 203.346,203.345 2.672,13.52 14.616,23.748 28.908,23.748 14.292,0 26.236,-10.228 28.907,-23.748 C 391.039,475.166 475.166,391.04 488.252,284.908 501.772,282.236 512,270.292 512,256 512,241.708 501.772,229.764 488.252,227.093 Z M 256,15 c 7.979,0 14.47,6.491 14.47,14.47 0,7.963 -6.491,14.441 -14.47,14.441 -7.979,0 -14.47,-6.479 -14.47,-14.441 C 241.53,21.491 248.021,15 256,15 Z M 15,256 c 0,-7.979 6.491,-14.47 14.47,-14.47 7.963,0 14.441,6.491 14.441,14.47 0,7.979 -6.479,14.47 -14.441,14.47 C 21.491,270.47 15,263.979 15,256 Z m 241,241 c -7.979,0 -14.47,-6.491 -14.47,-14.47 0,-7.979 6.491,-14.47 14.47,-14.47 7.979,0 14.47,6.491 14.47,14.47 0,7.979 -6.491,14.47 -14.47,14.47 z m 27.964,-23.75 C 280.066,461.535 269.008,453.061 256,453.061 c -13.008,0 -24.066,8.474 -27.964,20.189 C 129.408,460.681 51.291,382.565 38.748,283.962 c 11.7,-3.9 20.163,-14.957 20.163,-27.961 0,-13.004 -8.463,-24.061 -20.163,-27.962 C 51.289,129.435 129.407,51.318 228.039,38.75 231.94,50.449 242.996,58.911 256,58.911 c 13.005,0 24.061,-8.463 27.962,-20.163 98.602,12.542 176.719,90.659 189.288,189.288 -11.715,3.898 -20.189,14.957 -20.189,27.964 0,13.007 8.474,24.065 20.188,27.964 C 460.68,382.565 382.564,460.68 283.964,473.25 Z M 482.53,270.47 c -7.979,0 -14.47,-6.491 -14.47,-14.47 0,-7.979 6.491,-14.47 14.47,-14.47 7.979,0 14.47,6.491 14.47,14.47 0,7.979 -6.491,14.47 -14.47,14.47 z"
         inkscape:connector-curvature="0"
         style="fill:#ffffff" />
      <path
         id="path4"
         d="m 389.404,276.12 c -1.346,-0.359 -2.683,-0.716 -3.993,-1.073 -1.981,-0.544 -3.448,-3.085 -4.555,-5.652 20.365,-13.747 35.554,-37.428 35.554,-58.072 v -18.767 c 0,-23.139 -7.392,-42.775 -21.377,-56.786 -12.498,-12.521 -29.322,-19.583 -47.372,-19.883 -0.084,0 -0.167,0 -0.249,0 -26.84,0.445 -56.319,16.926 -65.696,52.489 -6.618,-2.195 -13.622,-3.411 -20.829,-3.531 -0.084,-0.001 -0.166,-0.001 -0.25,0 -7.209,0.12 -14.215,1.337 -20.835,3.533 -9.399,-35.565 -38.884,-52.047 -65.718,-52.491 -0.082,0 -0.165,0 -0.249,0 -18.049,0.3 -34.867,7.362 -47.359,19.885 -13.974,14.008 -21.36,33.644 -21.36,56.784 v 18.767 c 0,20.64 15.176,44.325 35.533,58.076 -1.103,2.563 -2.567,5.101 -4.552,5.644 -1.327,0.362 -2.668,0.72 -4.016,1.081 -21.646,5.785 -51.289,13.706 -51.289,51.115 v 16.187 c 0,6.855 5.577,12.433 12.44,12.433 l 57.462,-0.057 c 4.142,-0.004 7.496,-3.365 7.492,-7.507 -0.004,-4.14 -3.36,-7.493 -7.5,-7.493 -0.002,0 -0.005,0 -0.008,0 l -54.887,0.054 v -13.617 c 0,-20.951 11.421,-28.088 30.765,-33.973 l 35.166,20.603 c 8.785,5.652 15.683,5.654 24.501,10e-4 l 22.201,-13.03 c 5.423,6.682 11.903,12.701 19.02,17.508 -1.107,2.568 -2.572,5.109 -4.543,5.651 -1.324,0.361 -2.662,0.718 -4.008,1.078 -21.661,5.782 -51.327,13.702 -51.327,51.119 v 16.187 c 0,6.855 5.59,12.433 12.461,12.433 h 62.961 c 4.143,0 7.5,-3.358 7.5,-7.5 0,-4.142 -3.357,-7.5 -7.5,-7.5 h -60.422 v -13.619 c 0,-20.953 11.434,-28.09 30.79,-33.973 l 35.138,20.602 c 4.402,2.833 8.328,4.249 12.254,4.249 3.926,0 7.852,-1.417 12.253,-4.249 l 35.157,-20.597 c 19.345,5.882 30.772,13.021 30.772,33.968 v 13.619 h -59.94 c -4.143,0 -7.5,3.358 -7.5,7.5 0,4.142 3.357,7.5 7.5,7.5 h 62.508 c 6.855,0 12.433,-5.577 12.433,-12.433 v -16.187 c 0,-37.417 -29.666,-45.336 -51.327,-51.119 -1.346,-0.359 -2.684,-0.717 -3.994,-1.074 -1.975,-0.542 -3.436,-3.086 -4.537,-5.653 7.115,-4.806 13.594,-10.823 19.017,-17.503 l 22.208,13.02 c 4.401,2.833 8.328,4.249 12.253,4.249 3.926,0 7.851,-1.416 12.252,-4.247 l 35.176,-20.593 c 19.334,5.881 30.755,13.022 30.755,33.962 v 13.62 h -54.865 c -4.143,0 -7.5,3.358 -7.5,7.5 0,4.142 3.357,7.5 7.5,7.5 h 57.404 c 6.871,0 12.461,-5.577 12.461,-12.433 v -16.187 c -0.002,-37.416 -29.669,-45.336 -51.33,-51.118 z m 12.006,-64.797 c 0,19.576 -19.213,43.87 -41.11,51.987 -9.422,3.485 -16.101,3.486 -25.507,0.007 -1.73,-0.645 -3.47,-1.415 -5.206,-2.278 0.004,-0.252 0.021,-0.507 0.021,-0.759 v -18.767 c 0,-20.933 -6.069,-38.985 -17.578,-52.616 0.632,-0.62 1.22,-1.22 1.774,-1.785 3.866,-3.945 4.564,-4.656 8.795,-3.563 3.085,0.791 5.714,1.489 7.994,2.095 7.873,2.091 12.209,3.243 16.943,3.243 4.76,0 9.106,-1.154 16.998,-3.25 2.274,-0.604 4.896,-1.3 7.98,-2.091 4.209,-1.085 4.902,-0.375 8.771,3.571 3.861,3.938 9.391,9.544 20.124,11.919 v 12.287 z m -53.874,-80.435 c 23.967,0.455 49.577,17.086 53.389,52.41 -3.934,-1.588 -6.317,-4.02 -8.93,-6.683 -4.488,-4.577 -10.637,-10.845 -23.218,-7.595 -3.121,0.8 -5.783,1.507 -8.093,2.121 -6.889,1.829 -10.346,2.747 -13.148,2.747 -2.776,0 -6.224,-0.916 -13.093,-2.74 -2.316,-0.615 -4.986,-1.324 -8.109,-2.125 -12.612,-3.255 -18.757,3.015 -23.243,7.591 -0.653,0.666 -1.299,1.31 -1.955,1.94 -1.788,-1.351 -3.636,-2.611 -5.542,-3.771 6.72,-29.723 30.411,-43.486 51.942,-43.895 z m -86.773,48.958 c 23.954,0.454 49.551,17.086 53.361,52.41 -3.935,-1.588 -6.319,-4.02 -8.931,-6.683 -3.624,-3.696 -8.328,-8.494 -16.631,-8.494 -1.979,0 -4.165,0.273 -6.588,0.898 -3.129,0.803 -5.797,1.511 -8.111,2.126 -6.873,1.825 -10.323,2.742 -13.101,2.742 -2.809,0 -6.273,-0.922 -13.178,-2.758 -2.296,-0.611 -4.938,-1.313 -8.024,-2.107 -12.612,-3.252 -18.759,3.019 -23.245,7.599 -2.606,2.66 -4.986,5.089 -8.913,6.676 3.81,-35.325 29.407,-51.955 53.361,-52.409 z m -86.802,-48.958 c 21.526,0.408 45.222,14.172 51.966,43.898 -1.907,1.162 -3.757,2.423 -5.547,3.775 -0.664,-0.636 -1.319,-1.287 -1.979,-1.96 -4.489,-4.57 -10.637,-10.831 -23.231,-7.58 -3.098,0.796 -5.742,1.5 -8.04,2.11 -6.899,1.835 -10.363,2.756 -13.17,2.756 -2.788,0 -6.215,-0.911 -13.042,-2.726 -2.326,-0.619 -5.013,-1.333 -8.16,-2.139 -12.613,-3.253 -18.758,3.019 -23.244,7.598 -2.606,2.66 -4.986,5.089 -8.913,6.676 3.809,-35.323 29.406,-51.954 53.36,-52.408 z m -53.846,80.435 v -12.27 c 10.742,-2.372 16.252,-7.995 20.112,-11.935 3.869,-3.947 4.568,-4.658 8.795,-3.568 3.108,0.797 5.752,1.5 8.042,2.108 7.833,2.082 12.147,3.229 16.896,3.229 4.768,0 9.121,-1.158 17.025,-3.26 2.263,-0.602 4.867,-1.294 7.924,-2.08 4.226,-1.088 4.92,-0.377 8.789,3.563 0.559,0.569 1.152,1.172 1.79,1.796 -11.504,13.63 -17.571,31.679 -17.571,52.607 v 18.767 c 0,0.251 0.017,0.505 0.021,0.757 -1.741,0.864 -3.484,1.632 -5.215,2.273 -9.424,3.485 -16.103,3.485 -25.519,0.003 -2.465,-0.915 -4.896,-2.035 -7.27,-3.33 -0.233,-0.147 -0.477,-0.283 -0.729,-0.406 -0.008,-0.004 -0.016,-0.007 -0.022,-0.011 -18.351,-10.355 -33.068,-31.108 -33.068,-48.243 z m 58.384,89.689 c -0.093,0.054 -0.185,0.111 -0.274,0.169 -4.018,2.598 -4.493,2.6 -8.487,0.008 -0.096,-0.063 -0.193,-0.123 -0.292,-0.18 l -23.919,-14.014 c 4.077,-2.764 6.646,-6.849 8.343,-10.448 0.704,0.29 1.414,0.567 2.125,0.831 12.76,4.721 23.171,4.72 35.935,0 0.914,-0.338 1.828,-0.705 2.742,-1.091 1.34,4.075 3.139,8.138 5.331,12.105 z m 86.778,48.954 c -0.1,0.058 -0.196,0.118 -0.293,0.181 -3.996,2.594 -4.472,2.597 -8.474,0 -0.095,-0.062 -0.191,-0.122 -0.29,-0.179 l -23.917,-14.023 c 4.08,-2.768 6.657,-6.848 8.357,-10.453 0.709,0.292 1.419,0.578 2.135,0.843 6.38,2.36 12.172,3.54 17.965,3.54 5.795,0 11.591,-1.181 17.976,-3.542 0.71,-0.263 1.414,-0.548 2.118,-0.838 1.696,3.604 4.268,7.684 8.35,10.453 z m 49.331,-89.685 c 0,19.573 -19.201,43.867 -41.084,51.986 -9.421,3.486 -16.102,3.486 -25.521,0.002 -21.888,-8.113 -41.087,-32.407 -41.087,-51.988 v -12.287 c 10.729,-2.375 16.254,-7.98 20.112,-11.917 3.868,-3.949 4.565,-4.659 8.792,-3.57 3.046,0.783 5.647,1.475 7.907,2.076 7.908,2.104 12.265,3.262 17.034,3.262 4.735,0 9.074,-1.152 16.951,-3.245 2.278,-0.605 4.905,-1.303 8,-2.096 4.202,-1.084 4.901,-0.375 8.77,3.571 3.862,3.938 9.393,9.544 20.125,11.919 v 12.287 z m 37.473,40.727 c -0.1,0.059 -0.198,0.119 -0.295,0.182 -3.997,2.594 -4.473,2.597 -8.472,0 -0.096,-0.062 -0.192,-0.122 -0.291,-0.179 l -21.508,-12.61 c 2.194,-3.969 3.995,-8.034 5.336,-12.11 0.905,0.383 1.812,0.749 2.719,1.088 6.38,2.36 12.171,3.54 17.965,3.54 5.794,0 11.59,-1.181 17.973,-3.542 0.714,-0.264 1.422,-0.551 2.13,-0.841 1.703,3.608 4.284,7.693 8.375,10.462 z"
         inkscape:connector-curvature="0"
         style="fill:#ffffff" />
    </g>
  </g>
</svg>
