<?xml version="1.0" encoding="UTF-8" standalone="no"?>
<!-- Generator: Adobe Illustrator 19.0.0, SVG Export Plug-In . SVG Version: 6.00 Build 0)  -->

<svg
   xmlns:dc="http://purl.org/dc/elements/1.1/"
   xmlns:cc="http://creativecommons.org/ns#"
   xmlns:rdf="http://www.w3.org/1999/02/22-rdf-syntax-ns#"
   xmlns:svg="http://www.w3.org/2000/svg"
   xmlns="http://www.w3.org/2000/svg"
   xmlns:sodipodi="http://sodipodi.sourceforge.net/DTD/sodipodi-0.dtd"
   xmlns:inkscape="http://www.inkscape.org/namespaces/inkscape"
   version="1.1"
   id="Capa_1"
   x="0px"
   y="0px"
   viewBox="0 0 64 64"
   xml:space="preserve"
   sodipodi:docname="trabalho-em-equipe.svg"
   width="64"
   height="64"
   inkscape:version="0.92.3 (2405546, 2018-03-11)"><metadata
   id="metadata43"><rdf:RDF><cc:Work
       rdf:about=""><dc:format>image/svg+xml</dc:format><dc:type
         rdf:resource="http://purl.org/dc/dcmitype/StillImage" /><dc:title></dc:title></cc:Work></rdf:RDF></metadata><defs
   id="defs41" /><sodipodi:namedview
   pagecolor="#ffffff"
   bordercolor="#666666"
   borderopacity="1"
   objecttolerance="10"
   gridtolerance="10"
   guidetolerance="10"
   inkscape:pageopacity="0"
   inkscape:pageshadow="2"
   inkscape:window-width="1920"
   inkscape:window-height="968"
   id="namedview39"
   showgrid="false"
   units="px"
   inkscape:zoom="0.34885407"
   inkscape:cx="1280.0739"
   inkscape:cy="-64.943896"
   inkscape:window-x="1920"
   inkscape:window-y="27"
   inkscape:window-maximized="1"
   inkscape:current-layer="Capa_1" />
<g
   id="g859"
   transform="matrix(0.125,0,0,0.125,0,56)"
   style="fill:#ffffff"><g
     transform="translate(0,-1280)"
     id="g853"
     style="fill:#ffffff"><g
       id="g6"
       transform="translate(0,832)"
       style="fill:#ffffff">
	<g
   id="g4"
   style="fill:#ffffff">
		<path
   d="M 451.62,100.062 C 461.174,89.431 467,75.385 467,60 467,26.916 440.084,0 407,0 c -33.084,0 -60,26.916 -60,60 0,15.385 5.826,29.431 15.38,40.062 -15.975,7.603 -29.755,19.153 -40.102,33.399 C 301.667,124.635 279.018,120 256,120 c -23.019,0 -45.667,4.635 -66.279,13.461 C 179.374,119.215 165.594,107.665 149.619,100.062 159.174,89.431 165,75.385 165,60 165,26.916 138.084,0 105,0 71.916,0 45,26.916 45,60 45,75.385 50.826,89.431 60.38,100.062 24.733,117.026 0,153.649 0,196 v 30 c 0,8.284 6.716,15 15,15 H 96.215 C 92.091,255.548 90,270.609 90,286 90,339.853 116.58,390.336 160.219,421.049 153.671,434.683 150,449.924 150,466 v 31 c 0,8.284 6.716,15 15,15 h 182 c 8.284,0 15,-6.716 15,-15 v -31 c 0,-16.076 -3.671,-31.317 -10.219,-44.951 C 395.42,390.336 422,339.853 422,286 c 0,-15.392 -2.091,-30.452 -6.214,-45 H 497 c 8.284,0 15,-6.716 15,-15 v -30 c 0,-42.351 -24.733,-78.974 -60.38,-95.938 z M 407,30 c 16.542,0 30,13.458 30,30 0,16.542 -13.458,30 -30,30 -16.542,0 -30,-13.458 -30,-30 0,-16.542 13.458,-30 30,-30 z m -302,0 c 16.542,0 30,13.458 30,30 0,16.542 -13.458,30 -30,30 C 88.458,90 75,76.542 75,60 75,43.458 88.458,30 105,30 Z M 30,211 v -15 c 0,-41.906 33.645,-76 75,-76 41.355,0 75,34.094 75,76 v 15 c -3.51,0 -149.401,0 -150,0 z M 332,482 H 180 v -16 c 0,-41.355 34.093,-75 76,-75 41.906,0 76,33.645 76,75 z M 225,331 c 0,-16.262 14.196,-30 31,-30 16.804,0 31,13.738 31,30 0,16.262 -14.196,30 -31,30 -16.804,0 -31,-13.738 -31,-30 z m 110.061,65.142 C 325.64,385.691 314.146,377.114 301.222,371.05 311.417,359.98 317,345.893 317,331 317,314.947 310.524,299.823 298.765,288.415 287.19,277.185 272.002,271 256,271 c -16.003,0 -31.19,6.185 -42.765,17.415 C 201.476,299.823 195,314.947 195,331 c 0,14.893 5.582,28.981 15.777,40.05 -12.923,6.064 -24.417,14.641 -33.838,25.092 C 141.537,370.972 120,329.848 120,286 c 0,-15.513 2.585,-30.606 7.682,-45 H 195 c 8.284,0 15,-6.716 15,-15 v -30 c 0,-12.59 -2.19,-24.673 -6.199,-35.885 C 220.069,153.552 238.166,150 256,150 c 17.834,0 35.931,3.552 52.199,10.115 C 304.19,171.327 302,183.41 302,196 v 30 c 0,8.284 6.716,15 15,15 h 67.318 c 5.097,14.393 7.682,29.486 7.682,45 0,43.848 -21.536,84.973 -56.939,110.142 z M 482,211 c -0.596,0 -146.478,0 -150,0 v -15 c 0,-41.906 33.645,-76 75,-76 41.355,0 75,34.094 75,76 z"
   id="path2"
   inkscape:connector-curvature="0"
   style="fill:#ffffff" />
	</g>
</g></g></g>
<g
   id="g8"
   transform="translate(0,-448)">
</g>
<g
   id="g10"
   transform="translate(0,-448)">
</g>
<g
   id="g12"
   transform="translate(0,-448)">
</g>
<g
   id="g14"
   transform="translate(0,-448)">
</g>
<g
   id="g16"
   transform="translate(0,-448)">
</g>
<g
   id="g18"
   transform="translate(0,-448)">
</g>
<g
   id="g20"
   transform="translate(0,-448)">
</g>
<g
   id="g22"
   transform="translate(0,-448)">
</g>
<g
   id="g24"
   transform="translate(0,-448)">
</g>
<g
   id="g26"
   transform="translate(0,-448)">
</g>
<g
   id="g28"
   transform="translate(0,-448)">
</g>
<g
   id="g30"
   transform="translate(0,-448)">
</g>
<g
   id="g32"
   transform="translate(0,-448)">
</g>
<g
   id="g34"
   transform="translate(0,-448)">
</g>
<g
   id="g36"
   transform="translate(0,-448)">
</g>
</svg>