<svg xmlns="http://www.w3.org/2000/svg" width="21" height="21" viewBox="0 0 21 21"><g><g><g><path fill="#fff" d="M11.952 7.903l6.917 1.374c.557.118.934.59.934 1.147v8.007c0 .652-.526 1.178-1.177 1.178H11.56c.22 0 .392-.173.392-.392v-.393h6.674a.394.394 0 0 0 .392-.393v-8.008a.394.394 0 0 0-.306-.384l-6.76-1.335z"/><path fill="none" stroke="#fff" stroke-miterlimit="20" stroke-width=".5" d="M11.952 7.903v0l6.917 1.374c.557.118.934.59.934 1.147v8.007c0 .652-.526 1.178-1.177 1.178H11.56c.22 0 .392-.173.392-.392v-.393 0h6.674a.394.394 0 0 0 .392-.393v-8.008a.394.394 0 0 0-.306-.384l-6.76-1.335v0z"/></g><g><path fill="#fff" d="M11.952 19.217c0 .22-.172.392-.392.392a.389.389 0 0 1-.393-.392V8.225c0-.118.055-.227.141-.306a.413.413 0 0 1 .33-.078l.314.062v10.921z"/><path fill="none" stroke="#fff" stroke-miterlimit="20" stroke-width=".5" d="M11.952 19.217c0 .22-.172.392-.392.392a.389.389 0 0 1-.393-.392v-.393 0V8.225c0-.118.055-.227.141-.306a.413.413 0 0 1 .33-.078l.314.062v10.921z"/></g><g><path fill="#fff" d="M11.167 18.824v.393c0 .22.173.392.393.392H8.42c.22 0 .392-.173.392-.392v-.393z"/><path fill="none" stroke="#fff" stroke-miterlimit="20" stroke-width=".5" d="M11.167 18.824v.393c0 .22.173.392.393.392H8.42c.22 0 .392-.173.392-.392v-.393 0z"/></g><g><path fill="#fff" d="M8.027 15.291c0-.22-.18-.392-.393-.392H5.28a.389.389 0 0 0-.393.392v3.533h-.785v-3.533c0-.652.526-1.178 1.178-1.178h2.355c.652 0 1.178.526 1.178 1.178v3.533h-.785z"/><path fill="none" stroke="#fff" stroke-miterlimit="20" stroke-width=".5" d="M8.027 15.291c0-.22-.18-.392-.393-.392H5.28a.389.389 0 0 0-.393.392v3.533h-.785v0-3.533c0-.652.526-1.178 1.178-1.178h2.355c.652 0 1.178.526 1.178 1.178v3.533h-.785v0z"/></g><g><path fill="#fff" d="M4.886 18.824h3.926v.393c0 .22-.173.392-.393.392H4.494a.389.389 0 0 1-.393-.392v-.393z"/><path fill="none" stroke="#fff" stroke-miterlimit="20" stroke-width=".5" d="M4.886 18.824v0h3.14v0h.786v.393c0 .22-.173.392-.393.392H4.494a.389.389 0 0 1-.393-.392v-.393 0z"/></g><g><path fill="#fff" d="M2.335.924l8.628 1.311c.573.094.99.58.99 1.162v4.506l-.315-.062a.413.413 0 0 0-.33.078.417.417 0 0 0-.14.306V3.397a.397.397 0 0 0-.33-.393L2.208 1.701c-.023-.008-.047-.008-.07-.008a.37.37 0 0 0-.252.094.375.375 0 0 0-.141.299V18.43c0 .22.18.393.393.393H4.1v.393c0 .22.173.392.393.392H2.139A1.176 1.176 0 0 1 .96 18.431V2.086c0-.346.15-.675.416-.895.267-.228.612-.322.958-.267z"/><path fill="none" stroke="#fff" stroke-miterlimit="20" stroke-width=".5" d="M2.335.924v0l8.628 1.311c.573.094.99.58.99 1.162v4.506l-.315-.062a.413.413 0 0 0-.33.078.417.417 0 0 0-.14.306V3.397a.397.397 0 0 0-.33-.393L2.208 1.701c-.023-.008-.047-.008-.07-.008a.37.37 0 0 0-.252.094.375.375 0 0 0-.141.299V18.43c0 .22.18.393.393.393H4.1v.393c0 .22.173.392.393.392H2.139A1.176 1.176 0 0 1 .96 18.431V2.086c0-.346.15-.675.416-.895.267-.228.612-.322.958-.267z"/></g></g></g></svg>