<svg xmlns="http://www.w3.org/2000/svg" width="19" height="19" viewBox="0 0 19 19"><g><g><g><g><path fill="#fff" d="M17.76 10.027a.1.1 0 0 1-.086.102l-1.636.272a.523.523 0 0 0-.42.386 6.234 6.234 0 0 1-.678 1.632.527.527 0 0 0 .023.572l.962 1.355a.106.106 0 0 1-.012.133l-1.16 1.16a.099.099 0 0 1-.074.032.096.096 0 0 1-.059-.02l-1.351-.962a.526.526 0 0 0-.573-.023c-.51.304-1.059.53-1.631.677a.517.517 0 0 0-.386.421l-.276 1.636a.1.1 0 0 1-.102.085h-1.64a.1.1 0 0 1-.1-.085l-.273-1.636a.523.523 0 0 0-.386-.42 6.474 6.474 0 0 1-1.596-.655.539.539 0 0 0-.265-.07.513.513 0 0 0-.304.097l-1.363.97a.116.116 0 0 1-.058.02.104.104 0 0 1-.074-.032l-1.161-1.16a.106.106 0 0 1-.012-.133l.958-1.343a.533.533 0 0 0 .024-.577 6.176 6.176 0 0 1-.686-1.627.533.533 0 0 0-.42-.386l-1.648-.28a.1.1 0 0 1-.085-.102v-1.64a.1.1 0 0 1 .085-.1l1.624-.273a.527.527 0 0 0 .425-.39 6.228 6.228 0 0 1 .666-1.635.52.52 0 0 0-.027-.569l-.97-1.363a.106.106 0 0 1 .011-.132l1.161-1.16a.099.099 0 0 1 .074-.032c.023 0 .043.008.058.02l1.344.958c.171.12.397.128.576.023a6.176 6.176 0 0 1 1.628-.686.533.533 0 0 0 .386-.42l.28-1.647a.1.1 0 0 1 .102-.086h1.64a.1.1 0 0 1 .1.086l.273 1.624a.527.527 0 0 0 .39.424 6.321 6.321 0 0 1 1.67.685c.18.106.401.098.573-.023l1.343-.966a.116.116 0 0 1 .059-.02c.015 0 .046.005.074.032l1.16 1.16c.035.036.04.09.012.133l-.962 1.351a.526.526 0 0 0-.023.573c.303.51.53 1.06.677 1.632.05.202.218.354.42.385l1.637.277a.1.1 0 0 1 .085.1v1.64zm.089-2.776l-1.309-.222a7.39 7.39 0 0 0-.525-1.27l.77-1.079a1.148 1.148 0 0 0-.124-1.484l-1.16-1.16a1.143 1.143 0 0 0-1.48-.125l-1.083.771a7.31 7.31 0 0 0-1.316-.54L11.404.847a1.15 1.15 0 0 0-1.138-.962h-1.64A1.15 1.15 0 0 0 7.49.848l-.226 1.324c-.437.137-.861.316-1.266.534l-1.071-.771a1.143 1.143 0 0 0-.67-.215c-.308 0-.6.121-.814.34L2.28 3.22a1.153 1.153 0 0 0-.125 1.484l.779 1.094a7.218 7.218 0 0 0-.518 1.274l-1.293.218A1.15 1.15 0 0 0 .16 8.427v1.64c0 .564.405 1.043.962 1.137l1.324.225c.137.437.316.861.534 1.266l-.767 1.067a1.148 1.148 0 0 0 .124 1.484l1.16 1.16a1.143 1.143 0 0 0 1.48.125l1.095-.779c.393.207.806.374 1.23.507l.219 1.308a1.15 1.15 0 0 0 1.137.962H10.3a1.15 1.15 0 0 0 1.138-.962l.222-1.308a7.39 7.39 0 0 0 1.27-.526l1.078.77a1.143 1.143 0 0 0 1.484-.125l1.16-1.16a1.153 1.153 0 0 0 .125-1.483l-.771-1.083c.214-.409.393-.833.526-1.27l1.308-.217a1.15 1.15 0 0 0 .962-1.138v-1.64a1.137 1.137 0 0 0-.954-1.136z"/></g><g><path fill="#fff" d="M9.484 12.177a2.973 2.973 0 0 1-2.972-2.971 2.973 2.973 0 0 1 2.972-2.972 2.973 2.973 0 0 1 2.971 2.972 2.973 2.973 0 0 1-2.971 2.971zm0-6.994A4.026 4.026 0 0 0 5.46 9.206a4.026 4.026 0 0 0 4.023 4.023 4.026 4.026 0 0 0 4.023-4.023 4.026 4.026 0 0 0-4.023-4.023z"/></g></g></g></g></svg>