<?xml version="1.0" encoding="UTF-8" standalone="no"?>
<svg
   xmlns:dc="http://purl.org/dc/elements/1.1/"
   xmlns:cc="http://creativecommons.org/ns#"
   xmlns:rdf="http://www.w3.org/1999/02/22-rdf-syntax-ns#"
   xmlns:svg="http://www.w3.org/2000/svg"
   xmlns="http://www.w3.org/2000/svg"
   xmlns:sodipodi="http://sodipodi.sourceforge.net/DTD/sodipodi-0.dtd"
   xmlns:inkscape="http://www.inkscape.org/namespaces/inkscape"
   id="Layer_1"
   enable-background="new 0 0 512 512"
   height="18"
   viewBox="0 0 18 18"
   width="18"
   version="1.1"
   sodipodi:docname="gerenciar.svg"
   inkscape:version="0.92.5 (2060ec1f9f, 2020-04-08)">
  <metadata
     id="metadata9">
    <rdf:RDF>
      <cc:Work
         rdf:about="">
        <dc:format>image/svg+xml</dc:format>
        <dc:type
           rdf:resource="http://purl.org/dc/dcmitype/StillImage" />
        <dc:title></dc:title>
      </cc:Work>
    </rdf:RDF>
  </metadata>
  <defs
     id="defs7" />
  <sodipodi:namedview
     pagecolor="#ffffff"
     bordercolor="#666666"
     borderopacity="1"
     objecttolerance="10"
     gridtolerance="10"
     guidetolerance="10"
     inkscape:pageopacity="0"
     inkscape:pageshadow="2"
     inkscape:window-width="1920"
     inkscape:window-height="983"
     id="namedview5"
     showgrid="false"
     inkscape:zoom="0.19838789"
     inkscape:cx="578.61583"
     inkscape:cy="-414.57917"
     inkscape:window-x="0"
     inkscape:window-y="394"
     inkscape:window-maximized="1"
     inkscape:current-layer="Layer_1" />
  <g
     id="g820"
     transform="translate(0,-494)">
    <path
       style="fill:#ffffff;stroke-width:0.03515625"
       inkscape:connector-curvature="0"
       id="path2"
       d="m 14.308594,504.61719 c -1.429242,0 -2.671313,0.81647 -3.284403,2.00749 L 7.1190703,504.37004 C 7.2890508,503.94623 7.3828125,503.48386 7.3828125,503 c 0,-0.48386 -0.093762,-0.94623 -0.2637422,-1.37004 l 3.9051207,-2.25464 c 0.61309,1.19102 1.855161,2.00749 3.284403,2.00749 C 16.344035,501.38281 18,499.72685 18,497.69141 18,495.65596 16.344035,494 14.308594,494 c -2.035442,0 -3.691407,1.65596 -3.691407,3.69141 0,0.22742 0.02081,0.45003 0.06036,0.66621 L 6.5904258,500.7173 C 5.9138789,499.85991 4.8658359,499.30859 3.6914062,499.30859 1.6559648,499.30859 0,500.96456 0,503 c 0,2.03544 1.6559648,3.69141 3.6914062,3.69141 1.1744297,0 2.2224727,-0.55132 2.8990196,-1.40871 l 4.0871252,2.35968 c -0.03955,0.21614 -0.06036,0.43879 -0.06036,0.66621 0,2.03545 1.655965,3.69141 3.691407,3.69141 C 16.344035,512 18,510.34404 18,508.30859 c 0,-2.03544 -1.655965,-3.6914 -3.691406,-3.6914 z m -1.374891,-4.67691 c 0.330223,-0.41435 0.835242,-0.66684 1.374891,-0.66684 0.539648,0 1.044668,0.25249 1.37489,0.66684 -0.40057,0.24581 -0.871418,0.38784 -1.37489,0.38784 -0.503473,0 -0.974321,-0.14203 -1.374891,-0.38784 z m 0.847547,-2.24887 c 0,-0.29078 0.236566,-0.52735 0.527344,-0.52735 0.290777,0 0.527343,0.23657 0.527343,0.52735 0,0.29077 -0.236566,0.52734 -0.527343,0.52734 -0.290778,0 -0.527344,-0.23657 -0.527344,-0.52734 z m 0.527344,-2.63672 c 1.453886,0 2.636718,1.18283 2.636718,2.63672 0,0.56925 -0.181933,1.09648 -0.489867,1.52792 -0.2308,-0.27246 -0.510222,-0.49792 -0.821672,-0.66533 0.162176,-0.24831 0.256852,-0.54454 0.256852,-0.86259 0,-0.87234 -0.709699,-1.58204 -1.582031,-1.58204 -0.872332,0 -1.582032,0.7097 -1.582032,1.58204 0,0.31813 0.09471,0.61442 0.256958,0.86273 -0.311415,0.16745 -0.590872,0.39287 -0.821637,0.6654 -0.308004,-0.43147 -0.490008,-0.95878 -0.490008,-1.52813 0,-1.45389 1.182832,-2.63672 2.636719,-2.63672 z M 1.0546875,503 c 0,-1.45389 1.182832,-2.63672 2.6367187,-2.63672 1.4538868,0 2.6367188,1.18283 2.6367188,2.63672 0,0.56925 -0.1819336,1.09649 -0.4898672,1.52793 -0.2308008,-0.27247 -0.5102226,-0.49792 -0.821707,-0.66534 0.1622109,-0.2483 0.2568867,-0.54453 0.2568867,-0.86263 0,-0.87229 -0.7096992,-1.58199 -1.5820313,-1.58199 -0.872332,0 -1.5820312,0.7097 -1.5820312,1.58199 0,0.3181 0.094676,0.61433 0.2568867,0.86263 -0.3114492,0.16742 -0.5909062,0.39287 -0.821707,0.66534 C 1.2366211,504.09649 1.0546875,503.56925 1.0546875,503 Z m 2.109375,-4e-5 c 0,-0.29074 0.2365664,-0.5273 0.5273437,-0.5273 0.2907774,0 0.5273438,0.23656 0.5273438,0.5273 0,0.29078 -0.2365664,0.52738 -0.5273438,0.52738 -0.2907773,0 -0.5273437,-0.23656 -0.5273437,-0.52738 z m -0.8475469,2.24891 c 0.3302227,-0.41435 0.8352422,-0.66684 1.3748906,-0.66684 0.5396485,0 1.044668,0.25249 1.3748907,0.66684 -0.4005703,0.24582 -0.871418,0.38785 -1.3748907,0.38785 -0.5034726,0 -0.9743203,-0.14203 -1.3748906,-0.38785 z m 10.6171524,5.3086 c 0.330223,-0.41435 0.835242,-0.66685 1.374926,-0.66685 0.539683,0 1.044703,0.2525 1.374926,0.66685 -0.400606,0.24581 -0.871454,0.38784 -1.374926,0.38784 -0.503473,0 -0.974321,-0.14203 -1.374926,-0.38784 z m 1.374926,-1.72157 c -0.290778,0 -0.527344,-0.23656 -0.527344,-0.52734 0,-0.29078 0.236566,-0.52731 0.527344,-0.52731 0.290777,0 0.527343,0.23657 0.527343,0.52731 0,0.29081 -0.236566,0.52734 -0.527343,0.52734 z m 2.146851,1.00062 c -0.2308,-0.2725 -0.510222,-0.49792 -0.821707,-0.66533 0.162211,-0.24831 0.256887,-0.54454 0.256887,-0.86263 0,-0.8723 -0.709699,-1.582 -1.582031,-1.582 -0.872332,0 -1.582032,0.7097 -1.582032,1.582 0,0.31809 0.09468,0.61432 0.256887,0.86263 -0.311484,0.16741 -0.590906,0.39287 -0.821707,0.66533 -0.307933,-0.43144 -0.489867,-0.95868 -0.489867,-1.52793 0,-1.45388 1.182832,-2.63672 2.636719,-2.63672 1.453886,0 2.636718,1.18284 2.636718,2.63672 0,0.56925 -0.181933,1.09649 -0.489867,1.52793 z" />
  </g>
</svg>
