<svg xmlns="http://www.w3.org/2000/svg" width="18" height="18" viewBox="0 0 18 18"><g><g><path fill="#fff" d="M14.625 6.588a.53.53 0 0 0-.53.531v9.024H10.91v-4.778a.53.53 0 0 0-.53-.53H7.193a.53.53 0 0 0-.53.53v4.778H3.479V7.119a.53.53 0 0 0-.531-.53h-.61l6.449-5.16 6.449 5.16h-.61zm.61 0zm-7.51 9.555v-4.247h2.123v4.247zm5.308-12.739V2.342h1.062v1.974l-1.14-.912h.078zm4.047 3.3l-1.924-1.539V1.811a.53.53 0 0 0-.53-.53h-2.123a.53.53 0 0 0-.53.53l-.001.807L9.118.335a.533.533 0 0 0-.663 0L.493 6.705a.532.532 0 0 0 .332.945h1.592v9.023c0 .294.237.531.53.531h11.678a.53.53 0 0 0 .531-.53V7.65h1.593a.53.53 0 0 0 .331-.946z"/></g></g></svg>