<svg xmlns="http://www.w3.org/2000/svg" width="17" height="20" viewBox="0 0 17 20"><g><g><g><path fill="#fff" d="M5.576 2.44c.71-.71 1.544-1.056 2.548-1.056s1.838.346 2.548 1.056c.71.71 1.056 1.544 1.056 2.548s-.345 1.838-1.056 2.548c-.71.71-1.544 1.056-2.548 1.056s-1.837-.345-2.548-1.056c-.71-.71-1.056-1.544-1.056-2.548s.346-1.837 1.056-2.548zm2.548 7.31c1.309 0 2.442-.468 3.368-1.394.926-.926 1.395-2.06 1.395-3.368 0-1.308-.47-2.441-1.395-3.368C10.566.695 9.432.225 8.124.225c-1.309 0-2.441.47-3.367 1.396C3.83 2.547 3.36 3.68 3.36 4.988c0 1.309.47 2.442 1.396 3.368.926.925 2.059 1.395 3.367 1.395z"/></g><g><path fill="#fff" d="M14.724 18.244c-.423.402-.983.597-1.714.597H3.488c-.731 0-1.292-.195-1.714-.597-.414-.394-.615-.932-.615-1.645 0-.37.012-.736.036-1.087.024-.345.073-.723.145-1.126.072-.397.162-.77.27-1.107.104-.324.246-.644.42-.953.168-.294.36-.547.573-.75.199-.19.45-.346.744-.463.273-.108.58-.167.913-.176.04.022.113.063.23.14.238.155.513.332.816.526.342.218.783.415 1.31.585a5.303 5.303 0 0 0 1.633.262c.545 0 1.094-.088 1.632-.262.527-.17.968-.367 1.31-.586.311-.198.578-.37.816-.526.117-.076.19-.117.23-.139.333.01.64.068.913.176.295.117.546.273.744.463.213.203.405.456.572.75.176.309.317.63.42.953.11.338.2.71.271 1.107.072.403.121.782.145 1.126.025.35.037.716.037 1.087 0 .713-.201 1.25-.615 1.645zm1.734-2.813c-.027-.385-.08-.806-.16-1.25a9.845 9.845 0 0 0-.307-1.256 6.207 6.207 0 0 0-.517-1.171 4.416 4.416 0 0 0-.779-1.015 3.434 3.434 0 0 0-1.118-.703 3.866 3.866 0 0 0-1.428-.259c-.202 0-.398.083-.775.329-.232.151-.503.326-.806.52-.259.165-.61.32-1.043.46a4.144 4.144 0 0 1-1.277.206c-.423 0-.853-.07-1.276-.207-.433-.14-.784-.294-1.042-.46-.3-.19-.572-.366-.808-.52-.376-.245-.571-.328-.773-.328-.515 0-.995.087-1.428.26a3.43 3.43 0 0 0-1.12.702 4.417 4.417 0 0 0-.778 1.015 6.217 6.217 0 0 0-.516 1.171A9.868 9.868 0 0 0 .2 14.182c-.08.443-.134.863-.16 1.25-.027.377-.04.77-.04 1.167 0 1.033.328 1.868.975 2.484.64.609 1.485.917 2.513.917h9.522c1.028 0 1.873-.308 2.513-.917.647-.615.975-1.451.975-2.484 0-.398-.014-.791-.04-1.168z"/></g></g></g></svg>