<?xml version="1.0" encoding="UTF-8" standalone="no"?>
<!-- Generator: Adobe Illustrator 19.0.0, SVG Export Plug-In . SVG Version: 6.00 Build 0)  -->

<svg
   xmlns:dc="http://purl.org/dc/elements/1.1/"
   xmlns:cc="http://creativecommons.org/ns#"
   xmlns:rdf="http://www.w3.org/1999/02/22-rdf-syntax-ns#"
   xmlns:svg="http://www.w3.org/2000/svg"
   xmlns="http://www.w3.org/2000/svg"
   xmlns:sodipodi="http://sodipodi.sourceforge.net/DTD/sodipodi-0.dtd"
   xmlns:inkscape="http://www.inkscape.org/namespaces/inkscape"
   version="1.1"
   id="Capa_1"
   x="0px"
   y="0px"
   viewBox="0 0 25 25"
   xml:space="preserve"
   sodipodi:docname="pergunta.svg"
   width="25"
   height="25"
   inkscape:version="0.92.3 (2405546, 2018-03-11)"><metadata
   id="metadata43"><rdf:RDF><cc:Work
       rdf:about=""><dc:format>image/svg+xml</dc:format><dc:type
         rdf:resource="http://purl.org/dc/dcmitype/StillImage" /><dc:title></dc:title></cc:Work></rdf:RDF></metadata><defs
   id="defs41" /><sodipodi:namedview
   pagecolor="#ffffff"
   bordercolor="#666666"
   borderopacity="1"
   objecttolerance="10"
   gridtolerance="10"
   guidetolerance="10"
   inkscape:pageopacity="0"
   inkscape:pageshadow="2"
   inkscape:window-width="1920"
   inkscape:window-height="968"
   id="namedview39"
   showgrid="false"
   inkscape:zoom="4.4370686"
   inkscape:cx="27.291322"
   inkscape:cy="-16.236392"
   inkscape:window-x="1920"
   inkscape:window-y="27"
   inkscape:window-maximized="1"
   inkscape:current-layer="Capa_1" />



<g
   id="g8"
   transform="translate(0,-430.431)">
</g>
<g
   id="g10"
   transform="translate(0,-430.431)">
</g>
<g
   id="g12"
   transform="translate(0,-430.431)">
</g>
<g
   id="g14"
   transform="translate(0,-430.431)">
</g>
<g
   id="g16"
   transform="translate(0,-430.431)">
</g>
<g
   id="g18"
   transform="translate(0,-430.431)">
</g>
<g
   id="g20"
   transform="translate(0,-430.431)">
</g>
<g
   id="g22"
   transform="translate(0,-430.431)">
</g>
<g
   id="g24"
   transform="translate(0,-430.431)">
</g>
<g
   id="g26"
   transform="translate(0,-430.431)">
</g>
<g
   id="g28"
   transform="translate(0,-430.431)">
</g>
<g
   id="g30"
   transform="translate(0,-430.431)">
</g>
<g
   id="g32"
   transform="translate(0,-430.431)">
</g>
<g
   id="g34"
   transform="translate(0,-430.431)">
</g>
<g
   id="g36"
   transform="translate(0,-430.431)">
</g>
<g
   id="g876"
   transform="matrix(0.05496583,0,0,0.05496583,-0.01657211,-0.01656976)"><circle
     r="227.414"
     cy="227.7155"
     cx="227.7155"
     id="path850"
     style="opacity:1;fill:#6dafe0;fill-opacity:1;stroke:none;stroke-width:12.89623833;stroke-miterlimit:4;stroke-dasharray:none;stroke-opacity:1" /><path
     id="path4"
     d="M 227.71484,0.30078125 A 227.414,227.414 0 0 1 348.22656,35.181641 227.414,227.414 0 0 0 227.71484,0.30078125 Z M 348.22656,35.181641 C 356.24679,123.66649 309.15735,227.66224 218.32031,300.58789 166.40026,341.88797 109.58676,366.52813 54.375,374.54102 a 227.414,227.414 0 0 0 15.304688,16.36718 227.414,227.414 0 0 0 0.759765,0.70899 227.414,227.414 0 0 0 16.048828,14.04492 227.414,227.414 0 0 0 1.761719,1.33984 227.414,227.414 0 0 0 16.39648,11.67969 227.414,227.414 0 0 0 2.94141,1.80274 227.414,227.414 0 0 0 16.39453,9.36328 227.414,227.414 0 0 0 4.26367,2.06054 227.414,227.414 0 0 0 16.03516,7.14063 227.414,227.414 0 0 0 5.76953,2.10547 227.414,227.414 0 0 0 15.32422,5.06054 227.414,227.414 0 0 0 7.34375,1.875 227.414,227.414 0 0 0 14.32813,3.1875 227.414,227.414 0 0 0 8.94726,1.35352 227.414,227.414 0 0 0 13.13086,1.56836 227.414,227.414 0 0 0 18.58984,0.92969 227.414,227.414 0 0 0 19.41016,-0.97266 227.414,227.414 0 0 0 11.20703,-1.35937 227.414,227.414 0 0 0 11.28906,-1.70704 227.414,227.414 0 0 0 11.06055,-2.48242 227.414,227.414 0 0 0 11.01953,-2.8125 227.414,227.414 0 0 0 10.78321,-3.58398 227.414,227.414 0 0 0 10.66992,-3.89453 227.414,227.414 0 0 0 10.3457,-4.62891 227.414,227.414 0 0 0 10.26758,-4.96094 227.414,227.414 0 0 0 9.80078,-5.62109 227.414,227.414 0 0 0 9.73047,-5.9668 227.414,227.414 0 0 0 9.20898,-6.58398 227.414,227.414 0 0 0 9.08008,-6.9043 227.414,227.414 0 0 0 8.50391,-7.4707 227.414,227.414 0 0 0 8.32812,-7.75977 227.414,227.414 0 0 0 7.74805,-8.3164 227.414,227.414 0 0 0 7.49414,-8.5293 227.414,227.414 0 0 0 6.87109,-9.03906 227.414,227.414 0 0 0 6.61133,-9.24414 227.414,227.414 0 0 0 5.92969,-9.67188 227.414,227.414 0 0 0 5.66797,-9.88086 227.414,227.414 0 0 0 4.92383,-10.1914 227.414,227.414 0 0 0 4.65429,-10.4004 227.414,227.414 0 0 0 3.88477,-10.64062 227.414,227.414 0 0 0 3.5918,-10.8125 227.414,227.414 0 0 0 2.80664,-10.99219 227.414,227.414 0 0 0 2.49023,-11.09375 227.414,227.414 0 0 0 1.69141,-11.1914 227.414,227.414 0 0 0 1.37695,-11.3418 227.414,227.414 0 0 0 0.9668,-19.35938 227.414,227.414 0 0 0 -1.01758,-19.79101 227.414,227.414 0 0 0 -1.14649,-9.44141 227.414,227.414 0 0 0 -2.0625,-13.50976 227.414,227.414 0 0 0 -1.75586,-7.82032 227.414,227.414 0 0 0 -3.77343,-14.6875 227.414,227.414 0 0 0 -2.06055,-6.20117 227.414,227.414 0 0 0 -5.7207,-15.60351 227.414,227.414 0 0 0 -2.09375,-4.6836 227.414,227.414 0 0 0 -7.85743,-16.20703 227.414,227.414 0 0 0 -1.88281,-3.28125 227.414,227.414 0 0 0 -10.1289,-16.46875 227.414,227.414 0 0 0 -1.46094,-2.041014 227.414,227.414 0 0 0 -12.48242,-16.373047 227.414,227.414 0 0 0 -0.86524,-0.984375 227.414,227.414 0 0 0 -14.83398,-15.878906 227.414,227.414 0 0 0 -0.2168,-0.201172 227.414,227.414 0 0 0 -37.54297,-29.359375 z M 54.375,374.54102 A 227.414,227.414 0 0 1 41.087891,357.20703 227.414,227.414 0 0 0 54.375,374.54102 Z M 0.35351562,229.17773 a 227.414,227.414 0 0 0 1.00976558,18.6836 227.414,227.414 0 0 1 -1.00976558,-18.6836 z m 2.13281248,27.92188 a 227.414,227.414 0 0 0 2.1445313,13.80664 227.414,227.414 0 0 1 -2.1445313,-13.80664 z m 3.8144531,21.24805 a 227.414,227.414 0 0 0 3.9335938,15.15039 227.414,227.414 0 0 1 -3.9335938,-15.15039 z m 5.8066408,20.79101 a 227.414,227.414 0 0 0 6.005859,16.25 227.414,227.414 0 0 1 -6.005859,-16.25 z m 7.777344,20.20899 a 227.414,227.414 0 0 0 8.283203,16.96875 227.414,227.414 0 0 1 -8.283203,-16.96875 z m 9.699218,19.43945 a 227.414,227.414 0 0 0 10.726563,17.33398 227.414,227.414 0 0 1 -10.726563,-17.33398 z"
     style="fill:#3ea4da;fill-opacity:1"
     inkscape:connector-curvature="0" /><path
     id="path6"
     d="M 259.004,286.187 H 197.848 V 256.32 c 0,-11.378 1.422,-19.911 4.267,-24.178 2.844,-5.689 8.533,-12.8 18.489,-22.756 l 27.022,-28.444 c 4.267,-4.267 5.689,-11.378 5.689,-18.489 0,-7.111 -1.422,-14.222 -7.111,-18.489 -4.267,-5.689 -9.956,-7.111 -17.067,-7.111 -7.111,0 -12.8,2.844 -17.067,8.533 -4.267,5.689 -7.111,14.222 -8.533,24.178 h -64 c 2.844,-27.022 12.8,-48.356 29.867,-62.578 17.067,-14.222 36.978,-22.756 62.578,-22.756 25.6,0 45.511,7.111 61.156,19.911 15.644,14.222 24.178,32.711 24.178,56.889 0,11.378 -1.422,18.489 -4.267,24.178 -2.844,5.689 -4.267,8.533 -5.689,11.378 -1.422,2.844 -4.267,5.689 -7.111,9.956 -4.267,4.267 -7.111,7.111 -8.533,8.533 -7.111,7.111 -12.8,12.8 -18.489,18.489 -5.689,5.689 -9.956,9.956 -11.378,14.222 -1.422,4.267 -2.844,8.533 -2.844,15.644 v 22.757 z m -65.422,51.2 c 0,-19.911 15.644,-35.556 35.556,-35.556 19.912,0 35.556,15.644 35.556,35.556 0,19.912 -15.644,35.556 -35.556,35.556 -19.912,0 -35.556,-15.645 -35.556,-35.556 z"
     style="fill:#ffffff"
     inkscape:connector-curvature="0" /></g></svg>