<?xml version="1.0" encoding="UTF-8" standalone="no"?>
<!-- Generator: Adobe Illustrator 19.0.0, SVG Export Plug-In . SVG Version: 6.00 Build 0)  -->

<svg
   xmlns:dc="http://purl.org/dc/elements/1.1/"
   xmlns:cc="http://creativecommons.org/ns#"
   xmlns:rdf="http://www.w3.org/1999/02/22-rdf-syntax-ns#"
   xmlns:svg="http://www.w3.org/2000/svg"
   xmlns="http://www.w3.org/2000/svg"
   xmlns:sodipodi="http://sodipodi.sourceforge.net/DTD/sodipodi-0.dtd"
   xmlns:inkscape="http://www.inkscape.org/namespaces/inkscape"
   version="1.1"
   id="Capa_1"
   x="0px"
   y="0px"
   viewBox="0 0 28 28"
   xml:space="preserve"
   sodipodi:docname="destravar.svg"
   width="28"
   height="28"
   inkscape:version="0.92.3 (2405546, 2018-03-11)"><metadata
   id="metadata49"><rdf:RDF><cc:Work
       rdf:about=""><dc:format>image/svg+xml</dc:format><dc:type
         rdf:resource="http://purl.org/dc/dcmitype/StillImage" /><dc:title></dc:title></cc:Work></rdf:RDF></metadata><defs
   id="defs47" /><sodipodi:namedview
   pagecolor="#ffffff"
   bordercolor="#666666"
   borderopacity="1"
   objecttolerance="10"
   gridtolerance="10"
   guidetolerance="10"
   inkscape:pageopacity="0"
   inkscape:pageshadow="2"
   inkscape:window-width="1920"
   inkscape:window-height="968"
   id="namedview45"
   showgrid="false"
   inkscape:zoom="1.3954163"
   inkscape:cx="43.000621"
   inkscape:cy="-119.0532"
   inkscape:window-x="1920"
   inkscape:window-y="27"
   inkscape:window-maximized="1"
   inkscape:current-layer="Capa_1" />

<g
   id="g862"
   transform="translate(2.8440012,-484.00032)"><g
     transform="matrix(0.05468627,0,0,0.05468627,-2.8436863,484.00063)"
     style="fill:#009972;fill-opacity:0.97647059"
     id="g6">
	<g
   style="fill:#009972;fill-opacity:0.97647059"
   id="g4">
		<path
   inkscape:connector-curvature="0"
   style="fill:#009972;fill-opacity:0.97647059"
   id="path2"
   d="M 400,188 H 187.963 v -82.23 c 0,-36.266 30.505,-65.77 68,-65.77 37.495,0 68,29.504 68,65.77 V 144 h 40 V 105.77 C 363.963,47.448 315.514,0 255.963,0 c -59.551,0 -108,47.448 -108,105.77 V 188 H 112 c -33.084,0 -60,26.916 -60,60 v 204 c 0,33.084 26.916,60 60,60 h 288 c 33.084,0 60,-26.916 60,-60 V 248 c 0,-33.084 -26.916,-60 -60,-60 z m 20,264 c 0,11.028 -8.972,20 -20,20 H 112 c -11.028,0 -20,-8.972 -20,-20 V 248 c 0,-11.028 8.972,-20 20,-20 h 288 c 11.028,0 20,8.972 20,20 z" />
	</g>
</g><g
     transform="matrix(0.05468627,0,0,0.05468627,-2.8436863,484.00063)"
     style="fill:#009972;fill-opacity:0.97647059"
     id="g12">
	<g
   style="fill:#009972;fill-opacity:0.97647059"
   id="g10">
		<path
   inkscape:connector-curvature="0"
   style="fill:#009972;fill-opacity:0.97647059"
   id="path8"
   d="m 256,286 c -20.435,0 -37,16.565 -37,37 0,13.048 6.76,24.51 16.963,31.098 V 398 c 0,11.045 8.954,20 20,20 11.045,0 20,-8.955 20,-20 V 354.145 C 286.207,347.565 293,336.08 293,323 c 0,-20.435 -16.565,-37 -37,-37 z" />
	</g>
</g></g>
<g
   id="g14"
   transform="translate(0,-484)">
</g>
<g
   id="g16"
   transform="translate(0,-484)">
</g>
<g
   id="g18"
   transform="translate(0,-484)">
</g>
<g
   id="g20"
   transform="translate(0,-484)">
</g>
<g
   id="g22"
   transform="translate(0,-484)">
</g>
<g
   id="g24"
   transform="translate(0,-484)">
</g>
<g
   id="g26"
   transform="translate(0,-484)">
</g>
<g
   id="g28"
   transform="translate(0,-484)">
</g>
<g
   id="g30"
   transform="translate(0,-484)">
</g>
<g
   id="g32"
   transform="translate(0,-484)">
</g>
<g
   id="g34"
   transform="translate(0,-484)">
</g>
<g
   id="g36"
   transform="translate(0,-484)">
</g>
<g
   id="g38"
   transform="translate(0,-484)">
</g>
<g
   id="g40"
   transform="translate(0,-484)">
</g>
<g
   id="g42"
   transform="translate(0,-484)">
</g>
</svg>