<?xml version="1.0" encoding="UTF-8" standalone="no"?>
<svg
   xmlns:dc="http://purl.org/dc/elements/1.1/"
   xmlns:cc="http://creativecommons.org/ns#"
   xmlns:rdf="http://www.w3.org/1999/02/22-rdf-syntax-ns#"
   xmlns:svg="http://www.w3.org/2000/svg"
   xmlns="http://www.w3.org/2000/svg"
   xmlns:sodipodi="http://sodipodi.sourceforge.net/DTD/sodipodi-0.dtd"
   xmlns:inkscape="http://www.inkscape.org/namespaces/inkscape"
   id="_x31__x2C_5_px"
   enable-background="new 0 0 24 24"
   height="28"
   viewBox="0 0 1.3125 1.3125"
   width="28"
   version="1.1"
   sodipodi:docname="lapis.svg"
   inkscape:version="0.92.3 (2405546, 2018-03-11)">
  <metadata
     id="metadata15">
    <rdf:RDF>
      <cc:Work
         rdf:about="">
        <dc:format>image/svg+xml</dc:format>
        <dc:type
           rdf:resource="http://purl.org/dc/dcmitype/StillImage" />
        <dc:title></dc:title>
      </cc:Work>
    </rdf:RDF>
  </metadata>
  <defs
     id="defs13" />
  <sodipodi:namedview
     pagecolor="#ffffff"
     bordercolor="#666666"
     borderopacity="1"
     objecttolerance="10"
     gridtolerance="10"
     guidetolerance="10"
     inkscape:pageopacity="0"
     inkscape:pageshadow="2"
     inkscape:window-width="1920"
     inkscape:window-height="968"
     id="namedview11"
     showgrid="false"
     inkscape:zoom="5.581665"
     inkscape:cx="36.098229"
     inkscape:cy="13.66979"
     inkscape:window-x="1920"
     inkscape:window-y="27"
     inkscape:window-maximized="1"
     inkscape:current-layer="_x31__x2C_5_px" />
  <path
     d="m 0.27321497,1.080279 c -0.0105007,0 -0.0210015,-0.004 -0.0289864,-0.01203 -0.0160245,-0.01603 -0.0160245,-0.042 0,-0.05803 l 0.7163466,-0.716352 c 0.0160246,-0.01602 0.042003,-0.01602 0.0580275,0 0.016025,0.01602 0.016025,0.042 0,0.05803 L 0.30220126,1.068304 c -0.007985,0.008 -0.0184856,0.01198 -0.0289864,0.01198 z"
     id="path2"
     inkscape:connector-curvature="0"
     style="stroke-width:0.05469153;fill:#009972;fill-opacity:0.97647059" />
  <path
     d="M 0.04099572,1.3125 C 0.03022154,1.3125 0.01972081,1.3082 0.01200934,1.30047 0.00227429,1.29077 -0.00188225,1.27684 7.9761818e-4,1.26344 L 0.0781858,0.876716 c 0.001586,-0.008 0.0055238,-0.01526 0.01121172,-0.02095 l 0.7967975,-0.796859 c 0.0760209,-0.07608 0.20875668,-0.07613 0.28499628,0 l 0.082365,0.08236 c 0.078591,0.07859 0.078591,0.206407 0,0.284998 L 0.45675896,1.223078 c -0.005688,0.0057 -0.0130165,0.0096 -0.0209468,0.01121 L 0.04909003,1.31168 C 0.04641016,1.312227 0.0436756,1.3125 0.04099572,1.3125 Z M 0.1561209,0.904937 0.0932806,1.219196 l 0.3142015,-0.0629 0.7880468,-0.788 c 0.046597,-0.0466 0.046597,-0.1224 0,-0.168997 l -0.082365,-0.08236 c -0.045284,-0.04518 -0.12403986,-0.04512 -0.16899611,0 z m 0.27159698,0.289155 h 5.4691e-4 z"
     id="path4"
     inkscape:connector-curvature="0"
     style="stroke-width:0.05469153;fill:#009972;fill-opacity:0.97647059" />
  <path
     d="m 0.42771788,1.235111 c -0.0105007,0 -0.0210015,-0.004 -0.0289864,-0.01203 L 0.08939752,0.913743 c -0.01602455,-0.01602 -0.01602455,-0.042 0,-0.05803 0.01602455,-0.01602 0.04200292,-0.01602 0.05802747,0 L 0.45675896,1.16505 c 0.0160246,0.01602 0.0160246,0.042 0,0.05803 -0.00804,0.008 -0.0184857,0.01203 -0.0290411,0.01203 z"
     id="path6"
     inkscape:connector-curvature="0"
     style="stroke-width:0.05469153;fill:#009972;fill-opacity:0.97647059" />
  <path
     d="m 1.1442832,0.518539 c -0.010501,0 -0.021002,-0.004 -0.028986,-0.01203 L 0.80596289,0.197171 c -0.0160246,-0.01602 -0.0160246,-0.042 0,-0.05803 0.0160246,-0.01602 0.0420029,-0.01602 0.0580275,0 L 1.1733243,0.448478 c 0.016025,0.01602 0.016025,0.042 0,0.05803 -0.00804,0.008 -0.01854,0.01203 -0.029041,0.01203 z"
     id="path8"
     inkscape:connector-curvature="0"
     style="stroke-width:0.05469153;fill:#009972;fill-opacity:0.97647059" />
</svg>
