<svg width="28" height="28" viewBox="0 0 28 28" fill="none" xmlns="http://www.w3.org/2000/svg">
<path d="M15.1845 24.9407V26.9204C15.1845 27.5161 14.7047 27.9986 14.1124 27.9986C13.5114 28.0286 13 27.562 12.9719 26.9575C12.9719 26.9452 12.9701 26.9328 12.9701 26.9204V24.9761C10.529 24.8965 8.19501 23.9509 6.37956 22.307C6.12998 22.0525 5.99116 21.7095 5.9929 21.3525C5.98235 20.5359 6.60626 19.8536 7.41646 19.797C7.73629 19.8041 8.04564 19.9155 8.29522 20.1152C9.62036 21.2359 11.2373 21.9517 12.9526 22.1833V15.1129C9.70116 14.2291 6.3092 13.1155 6.3092 9.10307C6.3092 5.83305 8.99814 3.37607 12.9525 3.09328V1.07823C12.9613 0.486069 13.4358 0.00885949 14.0246 0C14.6168 0 15.0966 0.482569 15.0966 1.07823V3.18165C17.123 3.2983 19.0563 4.08133 20.5976 5.40883C20.8472 5.66335 20.986 6.0063 20.9842 6.3633C20.9754 7.19582 20.3006 7.86575 19.4728 7.86575C19.2145 7.8622 18.9649 7.78268 18.7522 7.63595C17.6854 6.81579 16.4376 6.26962 15.1142 6.04513V12.2493C18.3656 13.1332 21.8454 14.4058 21.8454 18.5773C21.9157 21.6883 19.9825 24.6225 15.1845 24.9407ZM12.9701 5.90376C10.9138 6.06285 9.56055 7.24712 9.56055 8.89099C9.56055 10.5349 11.0544 11.1182 12.9701 11.6838V5.90376ZM15.1845 15.7846V22.2186C17.7856 21.9004 18.6995 20.3096 18.6995 18.9662C18.717 17.1103 17.1705 16.3502 15.1845 15.7846Z" fill="#009972"/>
</svg>
