<?xml version="1.0" encoding="UTF-8" standalone="no"?>
<svg
   xmlns:dc="http://purl.org/dc/elements/1.1/"
   xmlns:cc="http://creativecommons.org/ns#"
   xmlns:rdf="http://www.w3.org/1999/02/22-rdf-syntax-ns#"
   xmlns:svg="http://www.w3.org/2000/svg"
   xmlns="http://www.w3.org/2000/svg"
   xmlns:sodipodi="http://sodipodi.sourceforge.net/DTD/sodipodi-0.dtd"
   xmlns:inkscape="http://www.inkscape.org/namespaces/inkscape"
   height="28"
   viewBox="0 -32 21.000657 21.000001"
   width="28"
   version="1.1"
   id="svg10"
   sodipodi:docname="conecte-se.svg"
   inkscape:version="0.92.3 (2405546, 2018-03-11)">
  <metadata
     id="metadata16">
    <rdf:RDF>
      <cc:Work
         rdf:about="">
        <dc:format>image/svg+xml</dc:format>
        <dc:type
           rdf:resource="http://purl.org/dc/dcmitype/StillImage" />
        <dc:title></dc:title>
      </cc:Work>
    </rdf:RDF>
  </metadata>
  <defs
     id="defs14" />
  <sodipodi:namedview
     pagecolor="#ffffff"
     bordercolor="#666666"
     borderopacity="1"
     objecttolerance="10"
     gridtolerance="10"
     guidetolerance="10"
     inkscape:pageopacity="0"
     inkscape:pageshadow="2"
     inkscape:window-width="1920"
     inkscape:window-height="968"
     id="namedview12"
     showgrid="false"
     units="px"
     inkscape:zoom="2.0931244"
     inkscape:cx="154.50926"
     inkscape:cy="-66.836359"
     inkscape:window-x="1920"
     inkscape:window-y="27"
     inkscape:window-maximized="1"
     inkscape:current-layer="svg10" />
  <g
     id="g827"
     transform="translate(5e-7,-1.305211)"
     style="fill:#009972;fill-opacity:0.9137255">
    <path
       style="stroke-width:0.04101544;fill:#009972;fill-opacity:0.9137255"
       inkscape:connector-curvature="0"
       id="path2"
       d="m 7.8750055,-20.632338 c -2.4123933,0 -4.3750565,-1.96248 -4.3750565,-4.37484 0,-2.41238 1.9626632,-4.37502 4.3750565,-4.37502 2.4123935,0 4.3750565,1.96264 4.3750565,4.37502 0,2.41236 -1.962663,4.37484 -4.3750565,4.37484 z m 0,-7.43737 c -1.6886913,0 -3.0625555,1.37368 -3.0625555,3.06253 0,1.68867 1.3738642,3.06236 3.0625555,3.06236 1.6886914,0 3.0625555,-1.37369 3.0625555,-3.06236 0,-1.68885 -1.3738641,-3.06253 -3.0625555,-3.06253 z m 0,0" />
    <path
       style="stroke-width:0.04101544;fill:#009972;fill-opacity:0.9137255"
       inkscape:connector-curvature="0"
       id="path4"
       d="M 15.093761,-11.007379 H 0.65625046 C 0.29399894,-11.007379 0,-11.301369 0,-11.663619 v -3.06252 c 0,-2.291559 1.8646101,-4.156159 4.1561995,-4.156159 h 7.4376125 c 2.291589,0 4.156199,1.8646 4.156199,4.156159 v 3.06252 c 0,0.36225 -0.293999,0.65624 -0.65625,0.65624 z M 1.3125009,-12.319859 H 14.43751 v -2.40628 c 0,-1.56787 -1.275811,-2.843669 -2.843698,-2.843669 H 4.1561995 c -1.5678874,0 -2.8436986,1.275799 -2.8436986,2.843669 z m 0,0" />
    <path
       style="stroke-width:0.04101544;fill:#009972;fill-opacity:0.9137255"
       inkscape:connector-curvature="0"
       id="path6"
       d="m 20.343764,-20.413478 h -7.437452 c -0.362251,0 -0.65625,-0.294 -0.65625,-0.65624 0,-0.36225 0.293999,-0.65625 0.65625,-0.65625 h 7.437452 c 0.362252,0 0.656251,0.294 0.656251,0.65625 0,0.36224 -0.293999,0.65624 -0.656251,0.65624 z m 0,0" />
    <path
       style="stroke-width:0.04101544;fill:#009972;fill-opacity:0.9137255"
       inkscape:connector-curvature="0"
       id="path8"
       d="m 16.843815,-16.913569 c -0.168068,0 -0.335976,-0.0639 -0.463829,-0.192409 -0.256348,-0.25651 -0.256348,-0.67212 0,-0.92845 l 3.03628,-3.03625 -3.03628,-3.03625 c -0.256348,-0.25635 -0.256348,-0.67195 0,-0.92829 0.256348,-0.25635 0.671952,-0.25635 0.92846,0 l 3.499949,3.49991 c 0.256348,0.25634 0.256348,0.6721 0,0.92845 l -3.499949,3.49992 c -0.128655,0.129449 -0.296723,0.193369 -0.464631,0.193369 z m 0,0" />
  </g>
</svg>
