<?xml version="1.0" encoding="UTF-8" standalone="no"?>
<!-- Generator: Adobe Illustrator 19.0.0, SVG Export Plug-In . SVG Version: 6.00 Build 0)  -->

<svg
   xmlns:dc="http://purl.org/dc/elements/1.1/"
   xmlns:cc="http://creativecommons.org/ns#"
   xmlns:rdf="http://www.w3.org/1999/02/22-rdf-syntax-ns#"
   xmlns:svg="http://www.w3.org/2000/svg"
   xmlns="http://www.w3.org/2000/svg"
   xmlns:sodipodi="http://sodipodi.sourceforge.net/DTD/sodipodi-0.dtd"
   xmlns:inkscape="http://www.inkscape.org/namespaces/inkscape"
   version="1.1"
   id="Capa_1"
   x="0px"
   y="0px"
   viewBox="0 0 28 28"
   xml:space="preserve"
   sodipodi:docname="refrescar.svg"
   width="28"
   height="28"
   inkscape:version="0.92.3 (2405546, 2018-03-11)"><metadata
   id="metadata43"><rdf:RDF><cc:Work
       rdf:about=""><dc:format>image/svg+xml</dc:format><dc:type
         rdf:resource="http://purl.org/dc/dcmitype/StillImage" /><dc:title></dc:title></cc:Work></rdf:RDF></metadata><defs
   id="defs41" /><sodipodi:namedview
   pagecolor="#ffffff"
   bordercolor="#666666"
   borderopacity="1"
   objecttolerance="10"
   gridtolerance="10"
   guidetolerance="10"
   inkscape:pageopacity="0"
   inkscape:pageshadow="2"
   inkscape:window-width="1920"
   inkscape:window-height="968"
   id="namedview39"
   showgrid="false"
   inkscape:zoom="5.581665"
   inkscape:cx="0.72422433"
   inkscape:cy="43.201955"
   inkscape:window-x="1920"
   inkscape:window-y="27"
   inkscape:window-maximized="1"
   inkscape:current-layer="Capa_1" />
<g
   id="g6"
   style="fill:#009972;fill-opacity:0.95294118"
   transform="matrix(0.0546875,0,0,0.0546875,0,0.00174415)">
	<g
   id="g4"
   style="fill:#009972;fill-opacity:0.95294118">
		<path
   d="M 356.577,20.47 C 244.17,-27.11 114.517,10.696 45.89,109.82 L 23.99,93.4 C 14.28,86.06 0,92.97 0,105.4 v 150 c 0,11.04 11.57,18.37 21.71,13.42 l 120,-60 c 9.91,-4.97 11.22,-18.71 2.28,-25.42 l -25.6,-19.21 c 48.82,-74.16 140.467,-87.34 203.137,-60.84 134.21,56.85 134.01,248.701 -0.02,305.421 -85.863,36.352 -183.214,-4.356 -218.557,-87.82 -9.67,-22.91 -36.04,-33.62 -58.95,-23.93 -22.95,9.67 -33.62,36.12 -23.94,58.94 54.26,128.62 205.407,191.23 336.488,135.69 207.41,-87.57 207.119,-383.701 0.029,-471.181 z"
   id="path2"
   style="fill:#009972;fill-opacity:0.95294118"
   inkscape:connector-curvature="0" />
	</g>
</g>
<g
   id="g8"
   transform="translate(0,-484)">
</g>
<g
   id="g10"
   transform="translate(0,-484)">
</g>
<g
   id="g12"
   transform="translate(0,-484)">
</g>
<g
   id="g14"
   transform="translate(0,-484)">
</g>
<g
   id="g16"
   transform="translate(0,-484)">
</g>
<g
   id="g18"
   transform="translate(0,-484)">
</g>
<g
   id="g20"
   transform="translate(0,-484)">
</g>
<g
   id="g22"
   transform="translate(0,-484)">
</g>
<g
   id="g24"
   transform="translate(0,-484)">
</g>
<g
   id="g26"
   transform="translate(0,-484)">
</g>
<g
   id="g28"
   transform="translate(0,-484)">
</g>
<g
   id="g30"
   transform="translate(0,-484)">
</g>
<g
   id="g32"
   transform="translate(0,-484)">
</g>
<g
   id="g34"
   transform="translate(0,-484)">
</g>
<g
   id="g36"
   transform="translate(0,-484)">
</g>
</svg>