<?xml version="1.0" encoding="UTF-8" standalone="no"?>
<!-- Created with Inkscape (http://www.inkscape.org/) -->

<svg
   xmlns:dc="http://purl.org/dc/elements/1.1/"
   xmlns:cc="http://creativecommons.org/ns#"
   xmlns:rdf="http://www.w3.org/1999/02/22-rdf-syntax-ns#"
   xmlns:svg="http://www.w3.org/2000/svg"
   xmlns="http://www.w3.org/2000/svg"
   xmlns:xlink="http://www.w3.org/1999/xlink"
   xmlns:sodipodi="http://sodipodi.sourceforge.net/DTD/sodipodi-0.dtd"
   xmlns:inkscape="http://www.inkscape.org/namespaces/inkscape"
   width="200"
   height="178"
   viewBox="0 0 52.916666 47.095832"
   version="1.1"
   id="svg923"
   inkscape:version="0.92.3 (2405546, 2018-03-11)"
   sodipodi:docname="anoreg-pb-pb.svg">
  <defs
     id="defs917">
    <clipPath
       id="hmmua">
      <path
         d="M 0,147 V 0 h 165 v 147 z"
         id="path3"
         inkscape:connector-curvature="0" />
    </clipPath>
    <clipPath
       id="hmmua-3">
      <path
         d="M0 147V0h165v147z"
         id="path3-6" />
    </clipPath>
    <clipPath
       id="hmmuc">
      <path
         d="M230.43 144.56V2.36h164.71v142.2z"
         id="path7" />
    </clipPath>
    <radialGradient
       inkscape:collect="always"
       xlink:href="#linearGradient2626-3"
       id="radialGradient2862"
       gradientUnits="userSpaceOnUse"
       gradientTransform="matrix(-0.10770394,0.12407494,-0.10547331,-0.09155687,7.9303997,-261.21686)"
       cx="1203.295"
       cy="-1381.5436"
       fx="1203.295"
       fy="-1381.5436"
       r="81.047897" />
    <linearGradient
       inkscape:collect="always"
       id="linearGradient2626-3">
      <stop
         style="stop-color:#c2c2c2;stop-opacity:1"
         offset="0"
         id="stop2622" />
      <stop
         style="stop-color:#555555;stop-opacity:1"
         offset="1"
         id="stop2624" />
    </linearGradient>
    <clipPath
       id="hmmue">
      <path
         d="M460.86 145.11V1.81h164.71v143.3z"
         id="path11" />
    </clipPath>
    <clipPath
       id="hmmum">
      <path
         d="M460.86 275.872v-30.197h164.71v30.197z"
         id="path27" />
    </clipPath>
    <clipPath
       id="hmmug">
      <path
         d="M691.289 137.972V8.948H856v129.024z"
         id="path15" />
    </clipPath>
  </defs>
  <sodipodi:namedview
     id="base"
     pagecolor="#ffffff"
     bordercolor="#666666"
     borderopacity="1.0"
     inkscape:pageopacity="0.0"
     inkscape:pageshadow="2"
     inkscape:zoom="2.1929687"
     inkscape:cx="175.71323"
     inkscape:cy="104.93598"
     inkscape:document-units="px"
     inkscape:current-layer="g34"
     showgrid="false"
     units="px"
     inkscape:window-width="1920"
     inkscape:window-height="995"
     inkscape:window-x="0"
     inkscape:window-y="0"
     inkscape:window-maximized="1" />
  <metadata
     id="metadata920">
    <rdf:RDF>
      <cc:Work
         rdf:about="">
        <dc:format>image/svg+xml</dc:format>
        <dc:type
           rdf:resource="http://purl.org/dc/dcmitype/StillImage" />
        <dc:title></dc:title>
      </cc:Work>
    </rdf:RDF>
  </metadata>
  <g
     inkscape:label="Camada 1"
     inkscape:groupmode="layer"
     id="layer1"
     transform="translate(0,-249.90417)">
    <g
       transform="matrix(1.2121274,0,0,1.2121274,0,249.85646)"
       id="g36">
      <g
         clip-path="url(#hmmua)"
         id="g34">
        <g
           id="g1456"
           transform="matrix(0.14552009,0,0,0.14552038,164.61865,20.624961)"
           inkscape:export-xdpi="96"
           inkscape:export-ydpi="96">
          <rect
             inkscape:export-ydpi="96"
             inkscape:export-xdpi="96"
             y="-28.931437"
             x="-1078.0774"
             height="49.36438"
             width="194.80191"
             id="rect886"
             style="opacity:1;fill:#4b4b4b;fill-opacity:1;stroke:none;stroke-width:1.60633385;stroke-opacity:1"
             ry="0" />
          <path
             inkscape:export-ydpi="96"
             inkscape:export-xdpi="96"
             sodipodi:nodetypes="ccccccccsccc"
             inkscape:connector-curvature="0"
             id="rect825"
             d="m -1078.1407,-89.166234 v 70.103659 h 194.76996 l 3e-4,-70.103659 z m 0.066,112.473952 0.016,1.244964 c 1.0706,1.075873 0.7468,0.684274 1.0706,1.075873 30.0527,16.627823 55.0237,43.602825 93.76953,42.761655 41.78628,-0.907186 72.31345,-24.478029 99.82321,-44.063634 l 0.12089,-1.018858 z"
             style="opacity:1;fill:#1f1e1c;fill-opacity:1;stroke:none;stroke-width:1.39478219;stroke-opacity:1" />
          <path
             inkscape:export-ydpi="96"
             inkscape:export-xdpi="96"
             inkscape:connector-curvature="0"
             id="path827"
             d="m -981.28019,-81.809557 a 73.287142,72.53539 0 0 0 -72.44951,62.192142 h 144.914 a 73.287142,72.53539 0 0 0 -72.46449,-62.192142 z m -66.21031,103.457128 a 73.287142,72.53539 0 0 0 66.21031,41.613213 73.287142,72.53539 0 0 0 66.19818,-41.613213 z"
             style="opacity:1;fill:#2b2b2b;fill-opacity:1;stroke:none;stroke-width:2.57796407;stroke-opacity:1" />
          <rect
             inkscape:export-ydpi="96"
             inkscape:export-xdpi="96"
             ry="0"
             transform="scale(1,-1)"
             style="opacity:1;fill:#ffffff;fill-opacity:1;stroke:none;stroke-width:0.38764399;stroke-opacity:1"
             id="rect841"
             width="194.80191"
             height="2.8748033"
             x="-1078.0774"
             y="-23.307751" />
          <path
             inkscape:export-ydpi="96"
             inkscape:export-xdpi="96"
             sodipodi:nodetypes="ccccccccccc"
             inkscape:connector-curvature="0"
             id="rect845"
             d="m -1037.9484,-102.87302 h -7.61 l 5.7594,4.338004 -1.5418,7.028409 5.7739,-3.901534 6.4662,4.057913 -2.5861,-7.179276 6.0585,-4.343516 h -7.6641 l -2.3985,-6.67843 z"
             style="opacity:1;fill:#4b4b4b;fill-opacity:1;stroke:none;stroke-width:1.36043859;stroke-opacity:1" />
          <path
             inkscape:export-ydpi="96"
             inkscape:export-xdpi="96"
             style="opacity:1;fill:#4b4b4b;fill-opacity:1;stroke:none;stroke-width:1.36043859;stroke-opacity:1"
             d="m -1015.0164,-102.87302 h -7.6101 l 5.7595,4.338004 -1.5418,7.028409 5.774,-3.901534 6.4662,4.057913 -2.5861,-7.179276 6.0584,-4.343516 h -7.664 l -2.3986,-6.67843 z"
             id="path871"
             inkscape:connector-curvature="0"
             sodipodi:nodetypes="ccccccccccc" />
          <path
             inkscape:export-ydpi="96"
             inkscape:export-xdpi="96"
             style="opacity:1;fill:#4b4b4b;fill-opacity:1;stroke:none;stroke-width:1.36043859;stroke-opacity:1"
             d="m -992.0843,-102.87302 h -7.61021 l 5.7596,4.338004 -1.54181,7.028409 5.77393,-3.901534 6.46631,4.057913 -2.58614,-7.179276 6.05841,-4.343516 h -7.66409 l -2.39837,-6.67843 z"
             id="path873"
             inkscape:connector-curvature="0"
             sodipodi:nodetypes="ccccccccccc" />
          <path
             inkscape:export-ydpi="96"
             inkscape:export-xdpi="96"
             sodipodi:nodetypes="ccccccccccc"
             inkscape:connector-curvature="0"
             id="path875"
             d="m -968.6004,-102.87302 h -7.60991 l 5.75945,4.338004 -1.54195,7.028409 5.77407,-3.901534 6.46616,4.057913 -2.58613,-7.179276 6.05855,-4.343516 h -7.66409 l -2.39852,-6.67843 z"
             style="opacity:1;fill:#4b4b4b;fill-opacity:1;stroke:none;stroke-width:1.36043859;stroke-opacity:1" />
          <path
             inkscape:export-ydpi="96"
             inkscape:export-xdpi="96"
             sodipodi:nodetypes="ccccccccccc"
             inkscape:connector-curvature="0"
             id="path877"
             d="m -945.53083,-102.87302 h -7.61021 l 5.75945,4.338004 -1.54165,7.028409 5.77377,-3.901534 6.46617,4.057913 -2.58599,-7.179276 6.05847,-4.343516 h -7.66401 l -2.39852,-6.67843 z"
             style="opacity:1;fill:#4b4b4b;fill-opacity:1;stroke:none;stroke-width:1.36043859;stroke-opacity:1" />
          <path
             inkscape:export-ydpi="96"
             inkscape:export-xdpi="96"
             style="opacity:1;fill:#4b4b4b;fill-opacity:1;stroke:none;stroke-width:1.36043859;stroke-opacity:1"
             d="m -922.29698,-102.87302 h -7.61015 l 5.75945,4.338004 -1.54181,7.028409 5.77391,-3.901534 6.46631,4.057913 -2.58611,-7.179276 6.05843,-4.343516 h -7.66404 l -2.39854,-6.67843 z"
             id="path879"
             inkscape:connector-curvature="0"
             sodipodi:nodetypes="ccccccccccc" />
          <rect
             inkscape:export-ydpi="96"
             inkscape:export-xdpi="96"
             ry="0"
             style="opacity:1;fill:#ffffff;fill-opacity:1;stroke:none;stroke-width:1.06658733;stroke-opacity:1"
             id="rect1415"
             width="182.40105"
             height="23.243456"
             x="-1071.7451"
             y="-11.517483" />
          <path
             inkscape:export-ydpi="96"
             inkscape:export-xdpi="96"
             sodipodi:nodetypes="ccccccccc"
             inkscape:connector-curvature="0"
             id="path1022"
             d="m -1117.6907,11.075091 v 21.822696 c 57.2692,1.62937 79.1543,36.612043 133.00063,37.121464 0.0896,0.0015 0.26254,0.003 0.35269,0.003 0.0955,-6.71e-4 0.27776,-0.0013 0.37314,-0.003 61.38426,-0.549556 78.86155,-34.605893 139.3799,-36.235263 V 10.795686 c -51.92978,2.344794 -78.64669,55.927347 -139.75304,57.517478 -55.58702,-1.496847 -84.21152,-54.893279 -133.35332,-57.238073 z"
             style="opacity:1;fill:#4b4b4b;fill-opacity:1;stroke:none;stroke-width:1.49255025;stroke-opacity:1" />
          <path
             inkscape:export-ydpi="96"
             inkscape:export-xdpi="96"
             style="opacity:1;fill:#000000;fill-opacity:1;stroke:none;stroke-width:0.18881272;stroke-miterlimit:4;stroke-dasharray:none;stroke-opacity:1"
             d="m -959.116,-67.262642 -4.85422,14.045893 -16.13131,-0.01434 12.90621,8.589735 -4.66391,14.361096 13.02591,-8.986623 13.22801,8.986623 -4.90586,-14.361096 12.56233,-8.4952 -15.47548,-0.136889 z"
             id="path890"
             inkscape:connector-curvature="0"
             sodipodi:nodetypes="ccccccccccc" />
          <path
             inkscape:export-ydpi="96"
             inkscape:export-xdpi="96"
             sodipodi:nodetypes="ccccccccccc"
             inkscape:connector-curvature="0"
             id="rect993"
             d="m -953.92373,-71.628936 -4.85421,14.045893 -16.13116,-0.01434 12.90606,8.589736 -4.66377,14.361096 13.02577,-8.986622 13.22801,8.986622 -4.90571,-14.361096 12.56227,-8.495201 -15.47557,-0.136889 z"
             style="opacity:1;fill:#ffffff;fill-opacity:1;stroke:#c4c4c4;stroke-width:0.18881272;stroke-miterlimit:4;stroke-dasharray:none;stroke-opacity:1" />
          <text
             inkscape:export-ydpi="96"
             inkscape:export-xdpi="96"
             xml:space="preserve"
             style="font-style:normal;font-variant:normal;font-weight:normal;font-stretch:normal;font-size:19.48201752px;line-height:0;font-family:sans-serif;-inkscape-font-specification:'sans-serif, Normal';font-variant-ligatures:normal;font-variant-caps:normal;font-variant-numeric:normal;font-feature-settings:normal;text-align:start;letter-spacing:0px;word-spacing:0px;writing-mode:lr-tb;text-anchor:start;opacity:1;fill:#000000;fill-opacity:1;stroke:none;stroke-width:1.46115136"
             x="-981.22919"
             y="87.414955"
             id="text933"><tspan
               dy="1.8806107"
               sodipodi:role="line"
               id="tspan927"
               x="-980.83368"
               y="87.414955"
               style="font-style:normal;font-variant:normal;font-weight:normal;font-stretch:normal;line-height:0.94999999;font-family:'Arial Black';-inkscape-font-specification:'Arial Black, ';text-align:center;letter-spacing:0.79105049px;text-anchor:middle;fill:#000000;fill-opacity:1;stroke-width:1.46115136">Associação dos Notários</tspan><tspan
               sodipodi:role="line"
               x="-980.83368"
               y="105.92287"
               id="tspan929"
               style="font-style:normal;font-variant:normal;font-weight:normal;font-stretch:normal;line-height:0.94999999;font-family:'Arial Black';-inkscape-font-specification:'Arial Black, ';text-align:center;letter-spacing:0.79105049px;text-anchor:middle;fill:#000000;fill-opacity:1;stroke-width:1.46115136">e Registradores do Estado</tspan><tspan
               sodipodi:role="line"
               x="-980.83368"
               y="124.43079"
               id="tspan931"
               style="font-style:normal;font-variant:normal;font-weight:normal;font-stretch:normal;line-height:0.94999999;font-family:'Arial Black';-inkscape-font-specification:'Arial Black, ';text-align:center;letter-spacing:0.79105049px;text-anchor:middle;fill:#000000;fill-opacity:1;stroke-width:1.46115136">da Paraíba</tspan></text>
          <path
             inkscape:export-ydpi="96"
             inkscape:export-xdpi="96"
             style="opacity:1;fill:#4b4b4b;fill-opacity:1;stroke:none;stroke-width:0.03298048"
             id="path1401"
             d="m -1073.4503,-15.301957 -1.1767,28.944669 188.75913,0.689157 -0.12687,-27.576105 z m 63.6215,5.4804517 c 3.0163,0.8204284 5.7999,3.60988 6.6286,6.5634164 0.4973,1.706487 0.3978,4.8897475 -0.1657,6.7931359 -0.663,2.2315625 -2.9167,4.6928431 -5.2037,5.7101759 -1.4914,0.6563406 -2.2869,0.7547921 -5.4025,0.7876071 -3.1157,0 -3.8779,-0.098448 -5.303,-0.7547935 -1.9888,-0.9188783 -3.9445,-2.6910016 -4.9056,-4.4959401 -0.9612,-1.8377566 -1.1932,-6.3665149 -0.4307,-8.6308926 1.0272,-3.0848075 4.0106,-5.5460881 7.5571,-6.3008798 1.624,-0.32817 5.5019,-0.164087 7.2255,0.3281707 z m 62.80885,0.1969029 c 2.02196,0.6891573 4.17615,2.7894502 4.73989,4.5943916 0.62956,2.1331111 0.69583,2.1002944 -2.71793,2.1002944 -3.08256,0 -3.14868,0 -3.8448,-0.9845131 -0.89509,-1.2470494 -2.61838,-1.7393052 -4.20944,-1.2142342 -1.82285,0.5907073 -2.55211,1.8049415 -2.68464,4.46312498 -0.23225,4.16776912 0.96105,5.93989392 4.07674,5.93989392 1.25956,0 1.98882,-0.1969059 2.61853,-0.6891587 1.19314,-0.9188799 1.09374,-1.2142342 -0.53045,-1.3455024 l -1.42524,-0.098448 -0.1,-2.0674763 -0.1,-2.03465803 h 4.83884 4.80616 V 4.2898451 9.5405773 l -0.82867,0.1969029 c -0.59657,0.1640862 -2.55211,0.065642 -3.71226,-0.1640848 -0.0642,-0.032806 -0.0985,-0.328171 -0.0985,-0.6891602 0,-0.8204254 0.0657,-0.8204254 -1.85628,0.229721 -1.45822,0.8204269 -1.92241,0.9188768 -4.9384,0.9188768 -3.04957,0 -3.44704,-0.065642 -5.10436,-0.9845131 -3.67898,-2.0018399 -5.53527,-6.3665134 -4.73974,-10.9937217 0.82851,-4.6600264 3.57973,-7.3510265 8.31917,-8.2042712 2.05509,-0.393805 5.50242,-0.13127 7.49095,0.5250736 z m -103.87315,9.22159842 3.8439,10.11127048 0.3624,-10.11127048 0.064,-9.41850132 h 6.6288 l 2.7177,4.0036829 c 1.4916,2.2315624 3.0494,4.6272097 3.4803,5.3491866 l 0.7622,1.31268118 V -4.5051368 l 3e-4,-5.3163685 h 6.6289 l -3e-4,9.68103905 -0.064,9.71385715 -5.6675,0.1640863 c -1.0939,-0.1969044 -1.8894,-1.2798675 -6.5959,-8.82779552 l -1.2262,-1.96902478 -0.1015,5.3820003 -0.099,5.3820033 -6.8931,0.065956 -6.3648,-0.065956 c -0.2324,-0.7730295 -0.4985,-1.5346514 -0.7625,-2.2971973 l -3.4802,-0.098448 -3.4803,-0.098448 -1.0603,2.3300124 -6.165,-0.098448 6.9274,-19.2636401 h 7.1605 z m 65.75721,-8.40117302 c 1.32583,0.6563436 1.75643,1.1157813 2.28658,2.3300155 0.92807,2.2643776 0.5303,4.3318538 -1.15986,5.90707274 l -1.29285,1.2142342 1.02747,0.52507246 c 1.32569,0.6891573 1.95554,2.2643792 1.95554,4.7584764 0,1.1157812 0.16582,2.2971958 0.36448,2.6910002 0.19911,0.3609906 0.26523,0.7219768 0.16597,0.853245 -0.39776,0.3938043 -6.46333,0.3609877 -6.76154,-0.032806 -0.19896,-0.2297211 -0.39776,-1.4767675 -0.46418,-2.8222683 -0.16567,-3.1176242 -0.69598,-3.6426981 -3.77839,-3.6426981 h -2.12121 v 3.2817074 c 0,3.183259 -0.0328,3.2817089 -0.79552,3.4786133 -0.56329,0.1312697 -5.4357,0 -6.0656,-0.1640862 -0.064,-0.032806 -0.1,-4.3974887 -0.1,-9.74667386 l 3e-4,-9.71385564 7.55695,0.1312696 c 7.32468,0.098448 7.59005,0.1312696 9.18111,0.9516934 z m 21.37836,1.279866 -3e-4,2.2971988 h -4.93869 c -4.67332,0 -4.97168,0.032806 -5.17049,0.6563391 -0.1,0.3609892 -0.13433,0.9516965 0,1.3126842 0.19881,0.5907103 0.56344,0.6563406 4.4081,0.7219769 l 4.20958,0.098448 V -0.30455252 1.828557 l -4.30914,0.1640848 -4.30854,0.1640892 v 1.3126797 1.3126842 l 5.40243,0.098448 5.40273,0.065642 -0.0985,2.3956457 -0.1,2.3628321 -7.78916,0.098448 c -4.27571,0.065642 -8.28618,0 -8.84947,-0.098448 l -1.09374,-0.1969029 v -9.64821939 l 3e-4,-9.68103901 h 8.61737 8.61783 z m 48.39093,-1.7721203 c 3.41376,1.0173283 5.27004,3.9052299 4.80586,7.3838447 -0.29836,2.06747623 -1.32568,3.5442452 -3.14883,4.5615735 -1.25941,0.6891587 -2.05509,0.8204268 -5.30302,0.9845116 l -3.81167,0.1640848 -0.16568,2.9535379 -0.16567,2.9535393 -2.983,0.032806 c -1.62405,0 -3.18212,-0.065642 -3.38093,-0.1312696 -0.33149,-0.098448 -0.43074,-2.3628321 -0.43074,-9.77949195 V -9.8215172 h 6.39661 c 4.90556,0 6.82811,0.1312696 8.18707,0.5250725 z m 21.54389,0.3281695 c 1.59091,0.9188798 2.65181,2.5597321 2.65181,4.1349525 0,1.5095871 -0.72926,3.0519893 -1.69061,3.5770633 -0.66284,0.32817104 -0.66284,0.39380435 0.46404,1.11577975 1.45836,1.01733277 2.0218,2.33001395 1.82299,4.52875685 -0.19895,2.2643791 -1.12702,3.5442451 -3.21494,4.4631249 -1.3921,0.5907073 -2.48584,0.7219754 -7.68961,0.853245 -3.3145,0.098448 -6.52945,0.065642 -7.15916,-0.032806 l -1.09374,-0.1969029 V -0.20609807 -9.8871371 l 7.39125,0.1312696 c 6.69527,0.098448 7.45752,0.1640863 8.51797,0.7876087 z"
             inkscape:connector-curvature="0"
             sodipodi:nodetypes="cccccccccccccccccscccscccccccccccscscccccccccccccccccccccccccccccccccccccsccccscsccscccccccccccccccccccccccccccccccccccccscsccsccccccccccccccc" />
          <path
             inkscape:export-ydpi="96"
             inkscape:export-xdpi="96"
             style="opacity:1;fill:#4b4b4b;fill-opacity:1;stroke:none;stroke-width:0.03298048"
             id="path1403"
             d="m -1016.5573,-4.5707731 c -1.5248,1.2142327 -2.0551,4.98819747 -1.0278,7.5151129 0.9945,2.5269168 4.6406,3.1176226 6.4966,1.0501494 1.7235,-1.903393 1.5247,-7.12131 -0.2985,-8.5652623 -1.193,-0.9188768 -4.0103,-0.9188768 -5.1703,0 z"
             inkscape:connector-curvature="0" />
          <path
             inkscape:export-ydpi="96"
             inkscape:export-xdpi="96"
             style="opacity:1;fill:#4b4b4b;fill-opacity:1;stroke:none;stroke-width:0.03298048"
             id="path1405"
             d="m -1060.0739,2.8133985 4.1747,-0.1965716 -2.1201,-6.502701 z"
             inkscape:connector-curvature="0"
             sodipodi:nodetypes="cccc" />
          <path
             inkscape:export-ydpi="96"
             inkscape:export-xdpi="96"
             style="opacity:1;fill:#4b4b4b;fill-opacity:1;stroke:none;stroke-width:0.03298048"
             id="path1407"
             d="m -994.91388,-3.2580889 v 1.6408552 h 2.35345 c 2.81704,0 3.61257,-0.3609892 3.61257,-1.5752204 0,-1.4439523 -0.5303,-1.7064885 -3.38077,-1.7064885 h -2.58525 z"
             inkscape:connector-curvature="0" />
          <path
             inkscape:export-ydpi="96"
             inkscape:export-xdpi="96"
             style="opacity:1;fill:#4b4b4b;fill-opacity:1;stroke:none;stroke-width:0.03298048"
             id="path1409"
             d="m -922.75814,-4.6692245 c -0.13433,0.098448 -0.2318,0.9188798 -0.2318,1.8049399 v 1.5752204 h 2.45241 c 2.18793,0 2.55241,-0.098448 2.98331,-0.7219768 0.69597,-0.9845117 0.66299,-1.4439508 -0.13284,-2.231561 -0.5303,-0.525071 -1.09374,-0.6563406 -2.75092,-0.6563406 -1.16,0 -2.22076,0.098448 -2.32031,0.2297181 z"
             inkscape:connector-curvature="0" />
          <path
             inkscape:export-ydpi="96"
             inkscape:export-xdpi="96"
             style="opacity:1;fill:#4b4b4b;fill-opacity:1;stroke:none;stroke-width:0.03298048"
             id="path1411"
             d="m -903.10307,-3.7503447 v 1.4767674 h 2.12106 c 2.81748,0 3.18211,-0.1640848 3.18211,-1.4767674 0,-1.3126842 -0.36463,-1.4767675 -3.18211,-1.4767675 h -2.12106 z"
             inkscape:connector-curvature="0" />
          <path
             inkscape:export-ydpi="96"
             inkscape:export-xdpi="96"
             style="opacity:1;fill:#4b4b4b;fill-opacity:1;stroke:none;stroke-width:0.03298048"
             id="path1413"
             d="m -903.10307,3.3053289 v 1.6408538 h 2.58539 c 2.81703,0 3.38062,-0.2625378 3.38062,-1.6408538 0,-1.3783174 -0.56359,-1.6408552 -3.38062,-1.6408552 h -2.58539 z"
             inkscape:connector-curvature="0" />
          <rect
             inkscape:export-ydpi="96"
             inkscape:export-xdpi="96"
             transform="matrix(0.97270137,0.23206043,-0.2342393,0.97217897,0,0)"
             y="197.13019"
             x="-911.86725"
             height="42.865425"
             width="1.6550809"
             id="rect884"
             style="opacity:1;fill:#ffffff;fill-opacity:1;stroke:none;stroke-width:1.53026211;stroke-opacity:1" />
        </g>
        <rect
           style="opacity:1;fill:none;fill-opacity:1;stroke:none;stroke-width:0.03498919;stroke-miterlimit:4;stroke-dasharray:none;stroke-opacity:1"
           id="rect1428"
           width="43.656025"
           height="37.689774"
           x="1.6862607e-06"
           y="2.8793082"
           inkscape:export-xdpi="96"
           inkscape:export-ydpi="96" />
      </g>
    </g>
  </g>
</svg>
